<?xml version="1.0" encoding="us-ascii" standalone="no"?><svg xmlns="http://www.w3.org/2000/svg" xmlns:xlink="http://www.w3.org/1999/xlink" contentStyleType="text/css" height="987px" preserveAspectRatio="none" style="width:1036px;height:987px;background:#FFFFFF;" version="1.1" viewBox="0 0 1036 987" width="1036px" zoomAndPan="magnify"><defs/><g><text fill="#000000" font-family="sans-serif" font-size="14" font-weight="bold" lengthAdjust="spacing" textLength="158.8125" x="431.8438" y="24.9659">&#24191;&#21578;&#25237;&#25918;&#31995;&#32479;&#24635;&#20307;&#26550;&#26500;&#22270;</text><!--cluster ???--><g id="cluster_&#27969;&#37327;&#20391;"><path d="M8.5,668.6699 L52.8125,668.6699 A3.75,3.75 0 0 1 55.3125,671.1699 L62.3125,693.7378 L91.5,693.7378 A2.5,2.5 0 0 1 94,696.2378 L94,799.1699 A2.5,2.5 0 0 1 91.5,801.6699 L8.5,801.6699 A2.5,2.5 0 0 1 6,799.1699 L6,671.1699 A2.5,2.5 0 0 1 8.5,668.6699 " fill="#F5F5F5" style="stroke:#9E9E9E;stroke-width:1.5;"/><line style="stroke:#9E9E9E;stroke-width:1.5;" x1="6" x2="62.3125" y1="693.7378" y2="693.7378"/><text fill="#424242" font-family="sans-serif" font-size="14" font-weight="bold" lengthAdjust="spacing" textLength="43.3125" x="10" y="685.6358">&#27969;&#37327;&#20391;</text></g><!--cluster ???--><g id="cluster_&#25509;&#20837;&#23618;"><path d="M123.5,852.6699 L167.8125,852.6699 A3.75,3.75 0 0 1 170.3125,855.1699 L177.3125,877.7378 L290.5,877.7378 A2.5,2.5 0 0 1 293,880.2378 L293,950.1699 A2.5,2.5 0 0 1 290.5,952.6699 L123.5,952.6699 A2.5,2.5 0 0 1 121,950.1699 L121,855.1699 A2.5,2.5 0 0 1 123.5,852.6699 " fill="#F5F5F5" style="stroke:#9E9E9E;stroke-width:1.5;"/><line style="stroke:#9E9E9E;stroke-width:1.5;" x1="121" x2="177.3125" y1="877.7378" y2="877.7378"/><text fill="#424242" font-family="sans-serif" font-size="14" font-weight="bold" lengthAdjust="spacing" textLength="43.3125" x="125" y="869.6358">&#25509;&#20837;&#23618;</text></g><!--cluster ?????--><g id="cluster_&#22312;&#32447;&#26381;&#21153;&#23618;"><path d="M147.5,46.6699 L220.6875,46.6699 A3.75,3.75 0 0 1 223.1875,49.1699 L230.1875,71.7378 L306.5,71.7378 A2.5,2.5 0 0 1 309,74.2378 L309,791.1699 A2.5,2.5 0 0 1 306.5,793.6699 L147.5,793.6699 A2.5,2.5 0 0 1 145,791.1699 L145,49.1699 A2.5,2.5 0 0 1 147.5,46.6699 " fill="#F5F5F5" style="stroke:#9E9E9E;stroke-width:1.5;"/><line style="stroke:#9E9E9E;stroke-width:1.5;" x1="145" x2="230.1875" y1="71.7378" y2="71.7378"/><text fill="#424242" font-family="sans-serif" font-size="14" font-weight="bold" lengthAdjust="spacing" textLength="72.1875" x="149" y="63.6358">&#22312;&#32447;&#26381;&#21153;&#23618;</text></g><!--cluster ???--><g id="cluster_&#25968;&#25454;&#23618;"><path d="M335.5,212.6699 L379.8125,212.6699 A3.75,3.75 0 0 1 382.3125,215.1699 L389.3125,237.7378 L631.5,237.7378 A2.5,2.5 0 0 1 634,240.2378 L634,331.1699 A2.5,2.5 0 0 1 631.5,333.6699 L335.5,333.6699 A2.5,2.5 0 0 1 333,331.1699 L333,215.1699 A2.5,2.5 0 0 1 335.5,212.6699 " fill="#F5F5F5" style="stroke:#9E9E9E;stroke-width:1.5;"/><line style="stroke:#9E9E9E;stroke-width:1.5;" x1="333" x2="389.3125" y1="237.7378" y2="237.7378"/><text fill="#424242" font-family="sans-serif" font-size="14" font-weight="bold" lengthAdjust="spacing" textLength="43.3125" x="337" y="229.6358">&#25968;&#25454;&#23618;</text></g><!--entity user--><g id="elem_user"><ellipse cx="50" cy="715.1699" fill="#E8F5E9" rx="8" ry="8" style="stroke:#4CAF50;stroke-width:0.5;"/><path d="M50,723.1699 L50,750.1699 M37,731.1699 L63,731.1699 M50,750.1699 L37,765.1699 M50,750.1699 L63,765.1699 " fill="none" style="stroke:#4CAF50;stroke-width:0.5;"/><text fill="#000000" font-family="sans-serif" font-size="14" lengthAdjust="spacing" textLength="56" x="22" y="781.6358">&#29992;&#25143;&#35831;&#27714;</text></g><!--entity rtb_handler--><g id="elem_rtb_handler"><rect fill="#E3F2FD" height="46.3441" rx="2.5" ry="2.5" style="stroke:#1976D2;stroke-width:0.5;" width="140" x="137" y="890.6699"/><rect fill="#E3F2FD" height="10" style="stroke:#1976D2;stroke-width:0.5;" width="15" x="257" y="895.6699"/><rect fill="#E3F2FD" height="2" style="stroke:#1976D2;stroke-width:0.5;" width="4" x="255" y="897.6699"/><rect fill="#E3F2FD" height="2" style="stroke:#1976D2;stroke-width:0.5;" width="4" x="255" y="901.6699"/><text fill="#000000" font-family="sans-serif" font-size="12" lengthAdjust="spacing" textLength="100" x="152" y="923.498">OpenRTB&#35831;&#27714;&#22788;&#29702;</text></g><!--entity index_svc--><g id="elem_index_svc"><rect fill="#E3F2FD" height="62.6882" rx="2.5" ry="2.5" style="stroke:#1976D2;stroke-width:0.5;" width="112" x="181" y="84.6699"/><rect fill="#E3F2FD" height="10" style="stroke:#1976D2;stroke-width:0.5;" width="15" x="273" y="89.6699"/><rect fill="#E3F2FD" height="2" style="stroke:#1976D2;stroke-width:0.5;" width="4" x="271" y="91.6699"/><rect fill="#E3F2FD" height="2" style="stroke:#1976D2;stroke-width:0.5;" width="4" x="271" y="95.6699"/><text fill="#000000" font-family="sans-serif" font-size="12" lengthAdjust="spacing" textLength="72" x="196" y="117.498">&#24191;&#21578;&#32034;&#24341;&#26381;&#21153;</text><text fill="#000000" font-family="sans-serif" font-size="12" lengthAdjust="spacing" textLength="57" x="196" y="133.8421">(Ad Index)</text></g><!--entity freq_ctrl--><g id="elem_freq_ctrl"><rect fill="#E3F2FD" height="62.6882" rx="2.5" ry="2.5" style="stroke:#1976D2;stroke-width:0.5;" width="131" x="161.5" y="252.6699"/><rect fill="#E3F2FD" height="10" style="stroke:#1976D2;stroke-width:0.5;" width="15" x="272.5" y="257.6699"/><rect fill="#E3F2FD" height="2" style="stroke:#1976D2;stroke-width:0.5;" width="4" x="270.5" y="259.6699"/><rect fill="#E3F2FD" height="2" style="stroke:#1976D2;stroke-width:0.5;" width="4" x="270.5" y="263.6699"/><text fill="#000000" font-family="sans-serif" font-size="12" lengthAdjust="spacing" textLength="48" x="176.5" y="285.498">&#39057;&#27425;&#25511;&#21046;</text><text fill="#000000" font-family="sans-serif" font-size="12" lengthAdjust="spacing" textLength="91" x="176.5" y="301.8421">(Frequency Cap)</text></g><!--entity pacing--><g id="elem_pacing"><rect fill="#E3F2FD" height="62.6882" rx="2.5" ry="2.5" style="stroke:#1976D2;stroke-width:0.5;" width="101" x="175.5" y="398.6699"/><rect fill="#E3F2FD" height="10" style="stroke:#1976D2;stroke-width:0.5;" width="15" x="256.5" y="403.6699"/><rect fill="#E3F2FD" height="2" style="stroke:#1976D2;stroke-width:0.5;" width="4" x="254.5" y="405.6699"/><rect fill="#E3F2FD" height="2" style="stroke:#1976D2;stroke-width:0.5;" width="4" x="254.5" y="409.6699"/><text fill="#000000" font-family="sans-serif" font-size="12" lengthAdjust="spacing" textLength="61" x="190.5" y="431.498">Pacing&#27169;&#22359;</text><text fill="#000000" font-family="sans-serif" font-size="12" lengthAdjust="spacing" textLength="56" x="190.5" y="447.8421">(&#21248;&#36895;&#28040;&#36153;)</text></g><!--entity ctr_pred--><g id="elem_ctr_pred"><rect fill="#E3F2FD" height="62.6882" rx="2.5" ry="2.5" style="stroke:#1976D2;stroke-width:0.5;" width="124" x="169" y="540.6699"/><rect fill="#E3F2FD" height="10" style="stroke:#1976D2;stroke-width:0.5;" width="15" x="273" y="545.6699"/><rect fill="#E3F2FD" height="2" style="stroke:#1976D2;stroke-width:0.5;" width="4" x="271" y="547.6699"/><rect fill="#E3F2FD" height="2" style="stroke:#1976D2;stroke-width:0.5;" width="4" x="271" y="551.6699"/><text fill="#000000" font-family="sans-serif" font-size="12" lengthAdjust="spacing" textLength="60" x="184" y="573.498">&#28857;&#20987;&#29575;&#39044;&#20272;</text><text fill="#000000" font-family="sans-serif" font-size="12" lengthAdjust="spacing" textLength="84" x="184" y="589.8421">(CTR Predictor)</text></g><!--entity ranker--><g id="elem_ranker"><rect fill="#E3F2FD" height="62.6882" rx="2.5" ry="2.5" style="stroke:#1976D2;stroke-width:0.5;" width="105" x="186.5" y="714.6699"/><rect fill="#E3F2FD" height="10" style="stroke:#1976D2;stroke-width:0.5;" width="15" x="271.5" y="719.6699"/><rect fill="#E3F2FD" height="2" style="stroke:#1976D2;stroke-width:0.5;" width="4" x="269.5" y="721.6699"/><rect fill="#E3F2FD" height="2" style="stroke:#1976D2;stroke-width:0.5;" width="4" x="269.5" y="725.6699"/><text fill="#000000" font-family="sans-serif" font-size="12" lengthAdjust="spacing" textLength="63" x="201.5" y="747.498">Ranker&#25490;&#24207;</text><text fill="#000000" font-family="sans-serif" font-size="12" lengthAdjust="spacing" textLength="65" x="201.5" y="763.8421">(eCPM&#25490;&#24207;)</text></g><!--entity ad_pool--><g id="elem_ad_pool"><path d="M349,260.6699 C349,250.6699 414,250.6699 414,250.6699 C414,250.6699 479,250.6699 479,260.6699 L479,307.8057 C479,317.8057 414,317.8057 414,317.8057 C414,317.8057 349,317.8057 349,307.8057 L349,260.6699 " fill="#FFF3E0" style="stroke:#FF9800;stroke-width:0.5;"/><path d="M349,260.6699 C349,270.6699 414,270.6699 414,270.6699 C414,270.6699 479,270.6699 479,260.6699 " fill="none" style="stroke:#FF9800;stroke-width:0.5;"/><text fill="#000000" font-family="sans-serif" font-size="14" lengthAdjust="spacing" textLength="42" x="359" y="289.6358">&#24191;&#21578;&#27744;</text><text fill="#000000" font-family="sans-serif" font-size="14" lengthAdjust="spacing" textLength="110" x="359" y="308.7038">(10w+ OpenRTB)</text></g><!--entity offline_model--><g id="elem_offline_model"><path d="M514,270.1699 C514,260.1699 566,260.1699 566,260.1699 C566,260.1699 618,260.1699 618,270.1699 L618,298.2378 C618,308.2378 566,308.2378 566,308.2378 C566,308.2378 514,308.2378 514,298.2378 L514,270.1699 " fill="#FFF3E0" style="stroke:#FF9800;stroke-width:0.5;"/><path d="M514,270.1699 C514,280.1699 566,280.1699 566,280.1699 C566,280.1699 618,280.1699 618,270.1699 " fill="none" style="stroke:#FF9800;stroke-width:0.5;"/><text fill="#000000" font-family="sans-serif" font-size="14" lengthAdjust="spacing" textLength="84" x="524" y="299.1358">&#31163;&#32447;&#35757;&#32451;&#27169;&#22411;</text></g><g id="elem_GMN26"><path d="M724.5,252.6699 L724.5,315.7879 L885.5,315.7879 L885.5,262.6699 L875.5,252.6699 L724.5,252.6699 " fill="#FEFFDD" style="stroke:#181818;stroke-width:0.5;"/><path d="M875.5,252.6699 L875.5,262.6699 L885.5,262.6699 L875.5,252.6699 " fill="#FEFFDD" style="stroke:#181818;stroke-width:1.0;"/><text fill="#000000" font-family="sans-serif" font-size="13" lengthAdjust="spacing" textLength="140" x="730.5" y="271.5669">&#31526;&#21512; OpenRTB &#21327;&#35758;&#35268;&#33539;</text><text fill="#000000" font-family="sans-serif" font-size="13" lengthAdjust="spacing" textLength="91" x="730.5" y="289.2729">&#25903;&#25345;&#33258;&#23450;&#20041;&#26500;&#24314;</text><text fill="#000000" font-family="sans-serif" font-size="13" lengthAdjust="spacing" textLength="86" x="730.5" y="306.9789">10w+ &#24191;&#21578;&#25968;&#25454;</text></g><g id="elem_GMN29"><path d="M326.5,723.6699 L326.5,769.0819 L435.5,769.0819 L435.5,733.6699 L425.5,723.6699 L326.5,723.6699 " fill="#FEFFDD" style="stroke:#181818;stroke-width:0.5;"/><path d="M425.5,723.6699 L425.5,733.6699 L435.5,733.6699 L425.5,723.6699 " fill="#FEFFDD" style="stroke:#181818;stroke-width:1.0;"/><text fill="#000000" font-family="sans-serif" font-size="13" lengthAdjust="spacing" textLength="88" x="332.5" y="742.5669">&#31163;&#32447;&#23450;&#26399;&#35757;&#32451; +</text><text fill="#000000" font-family="sans-serif" font-size="13" lengthAdjust="spacing" textLength="78" x="332.5" y="760.2729">&#22312;&#32447;&#23454;&#26102;&#39044;&#20272;</text></g><g id="elem_GMN32"><path d="M328,102.1699 L328,112.1699 L293.25,116.1699 L328,120.1699 L328,129.8759 A0,0 0 0 0 328,129.8759 L466,129.8759 A0,0 0 0 0 466,129.8759 L466,112.1699 L456,102.1699 L328,102.1699 A0,0 0 0 0 328,102.1699 " fill="#FEFFDD" style="stroke:#181818;stroke-width:0.5;"/><path d="M456,102.1699 L456,112.1699 L466,112.1699 L456,102.1699 " fill="#FEFFDD" style="stroke:#181818;stroke-width:0.5;"/><text fill="#000000" font-family="sans-serif" font-size="13" lengthAdjust="spacing" textLength="117" x="334" y="121.0669">&#20498;&#25490;&#32034;&#24341; + &#24555;&#36895;&#26816;&#32034;</text></g><g id="elem_GMN35"><path d="M920.5,261.6699 L920.5,307.0819 L1029.5,307.0819 L1029.5,271.6699 L1019.5,261.6699 L920.5,261.6699 " fill="#FEFFDD" style="stroke:#181818;stroke-width:0.5;"/><path d="M1019.5,261.6699 L1019.5,271.6699 L1029.5,271.6699 L1019.5,261.6699 " fill="#FEFFDD" style="stroke:#181818;stroke-width:1.0;"/><text fill="#000000" font-family="sans-serif" font-size="13" lengthAdjust="spacing" textLength="88" x="926.5" y="280.5669">&#29992;&#25143;&#23637;&#31034;&#35745;&#25968; +</text><text fill="#000000" font-family="sans-serif" font-size="13" lengthAdjust="spacing" textLength="78" x="926.5" y="298.2729">&#39057;&#27425;&#35268;&#21017;&#24341;&#25806;</text></g><g id="elem_GMN38"><path d="M724.5,407.6699 L724.5,453.0819 L833.5,453.0819 L833.5,417.6699 L823.5,407.6699 L724.5,407.6699 " fill="#FEFFDD" style="stroke:#181818;stroke-width:0.5;"/><path d="M823.5,407.6699 L823.5,417.6699 L833.5,417.6699 L823.5,407.6699 " fill="#FEFFDD" style="stroke:#181818;stroke-width:1.0;"/><text fill="#000000" font-family="sans-serif" font-size="13" lengthAdjust="spacing" textLength="88" x="730.5" y="426.5669">&#39044;&#31639;&#28040;&#32791;&#25511;&#21046; +</text><text fill="#000000" font-family="sans-serif" font-size="13" lengthAdjust="spacing" textLength="78" x="730.5" y="444.2729">&#25237;&#25918;&#36895;&#29575;&#35843;&#33410;</text></g><g id="elem_GMN41"><path d="M724,723.6699 L724,769.0819 L816,769.0819 L816,733.6699 L806,723.6699 L724,723.6699 " fill="#FEFFDD" style="stroke:#181818;stroke-width:0.5;"/><path d="M806,723.6699 L806,733.6699 L816,733.6699 L806,723.6699 " fill="#FEFFDD" style="stroke:#181818;stroke-width:1.0;"/><text fill="#000000" font-family="sans-serif" font-size="13" lengthAdjust="spacing" textLength="71" x="730" y="742.5669">eCPM&#25171;&#20998; +</text><text fill="#000000" font-family="sans-serif" font-size="13" lengthAdjust="spacing" textLength="57" x="730" y="760.2729">TopK&#25490;&#24207;</text></g><!--link user to rtb_handler--><g id="link_user_rtb_handler"><path d="M30.85,785.7499 C25.38,802.5299 23.21,821.7199 33,836.6699 C56.02,871.8399 93.4791,889.2598 131.0991,899.4598 " fill="none" id="user-to-rtb_handler" style="stroke:#181818;stroke-width:1.0;"/><polygon fill="#181818" points="136.89,901.0299,129.2504,894.8141,132.0642,899.7215,127.1569,902.5354,136.89,901.0299" style="stroke:#181818;stroke-width:1.0;"/><text fill="#000000" font-family="sans-serif" font-size="13" lengthAdjust="spacing" textLength="82" x="34" y="832.5669">OpenRTB&#35831;&#27714;</text></g><!--link rtb_handler to user--><g id="link_rtb_handler_user"><path d="M187.51,890.4799 C170.29,871.0299 144.35,842.1299 121,817.6699 C107.2,803.2199 95.7615,791.7333 82.6115,778.8233 " fill="none" id="rtb_handler-to-user" style="stroke:#181818;stroke-width:1.0;"/><polygon fill="#181818" points="78.33,774.6199,81.95,783.7793,81.8979,778.1227,87.5546,778.0706,78.33,774.6199" style="stroke:#181818;stroke-width:1.0;"/><text fill="#000000" font-family="sans-serif" font-size="13" lengthAdjust="spacing" textLength="52" x="139" y="832.5669">&#31454;&#20215;&#21709;&#24212;</text></g><!--link rtb_handler to index_svc--><g id="link_rtb_handler_index_svc"><path d="M277.22,902.5699 C406.93,881.9299 671,829.7599 671,747.1699 C671,283.1699 671,283.1699 671,283.1699 C671,112.2099 475.17,195.3799 311,147.6699 C305.13,145.9599 304.7301,145.9866 298.7501,143.8166 " fill="none" id="rtb_handler-to-index_svc" style="stroke:#181818;stroke-width:1.0;"/><polygon fill="#181818" points="293.11,141.7699,300.2058,148.6,297.8101,143.4755,302.9347,141.0798,293.11,141.7699" style="stroke:#181818;stroke-width:1.0;"/><text fill="#000000" font-family="sans-serif" font-size="13" lengthAdjust="spacing" textLength="52" x="672" y="506.5669">&#24191;&#21578;&#26816;&#32034;</text></g><!--link index_svc to ad_pool--><g id="link_index_svc_ad_pool"><path d="M293.02,140.2299 C333.47,156.9299 381.16,176.7399 382,177.6699 C400.1,197.6899 407.0834,221.7258 410.5034,244.6158 " fill="none" id="index_svc-to-ad_pool" style="stroke:#181818;stroke-width:1.0;"/><polygon fill="#181818" points="411.39,250.5499,414.0162,241.0576,410.6512,245.6048,406.104,242.2398,411.39,250.5499" style="stroke:#181818;stroke-width:1.0;"/><text fill="#000000" font-family="sans-serif" font-size="13" lengthAdjust="spacing" textLength="52" x="394" y="192.5669">&#26597;&#35810;&#24191;&#21578;</text></g><!--link ad_pool to index_svc--><g id="link_ad_pool_index_svc"><path d="M370.42,250.6599 C350.44,235.0699 326.83,215.6799 307,196.6699 C291.07,181.3999 278.5635,167.552 265.6635,152.292 " fill="none" id="ad_pool-to-index_svc" style="stroke:#181818;stroke-width:1.0;"/><polygon fill="#181818" points="261.79,147.7099,264.5455,157.1654,265.0179,151.5283,270.655,152.0008,261.79,147.7099" style="stroke:#181818;stroke-width:1.0;"/><text fill="#000000" font-family="sans-serif" font-size="13" lengthAdjust="spacing" textLength="65" x="308" y="192.5669">&#20505;&#36873;&#24191;&#21578;&#38598;</text></g><!--link index_svc to freq_ctrl--><g id="link_index_svc_freq_ctrl"><path d="M224.78,147.7799 C221.59,157.2099 218.6,167.7299 217,177.6699 C212.96,202.7399 215.1226,225.5356 218.9426,246.6656 " fill="none" id="index_svc-to-freq_ctrl" style="stroke:#181818;stroke-width:1.0;"/><polygon fill="#181818" points="220.01,252.5699,222.3451,243.0019,219.1205,247.6497,214.4727,244.4251,220.01,252.5699" style="stroke:#181818;stroke-width:1.0;"/><text fill="#000000" font-family="sans-serif" font-size="13" lengthAdjust="spacing" textLength="52" x="218" y="192.5669">&#20505;&#36873;&#24191;&#21578;</text></g><!--link freq_ctrl to pacing--><g id="link_freq_ctrl_pacing"><path d="M226.79,315.7099 C226.62,339.9799 226.4194,367.79 226.2594,392.18 " fill="none" id="freq_ctrl-to-pacing" style="stroke:#181818;stroke-width:1.0;"/><polygon fill="#181818" points="226.22,398.1799,230.279,389.2063,226.2528,393.18,222.2791,389.1539,226.22,398.1799" style="stroke:#181818;stroke-width:1.0;"/><text fill="#000000" font-family="sans-serif" font-size="13" lengthAdjust="spacing" textLength="65" x="228" y="364.5669">&#36807;&#28388;&#21518;&#24191;&#21578;</text></g><!--link pacing to ctr_pred--><g id="link_pacing_ctr_pred"><path d="M227.1,461.8899 C227.93,485.2399 228.8541,511.1938 229.6941,534.5238 " fill="none" id="pacing-to-ctr_pred" style="stroke:#181818;stroke-width:1.0;"/><polygon fill="#181818" points="229.91,540.5199,233.5836,531.3818,229.7301,535.5231,225.5888,531.6697,229.91,540.5199" style="stroke:#181818;stroke-width:1.0;"/><text fill="#000000" font-family="sans-serif" font-size="13" lengthAdjust="spacing" textLength="65" x="230" y="506.5669">&#39044;&#31639;&#20869;&#24191;&#21578;</text></g><!--link ctr_pred to ranker--><g id="link_ctr_pred_ranker"><path d="M232.43,603.9199 C233.88,635.1299 235.8416,677.1864 237.2916,708.4064 " fill="none" id="ctr_pred-to-ranker" style="stroke:#181818;stroke-width:1.0;"/><polygon fill="#181818" points="237.57,714.3999,241.1481,705.224,237.338,709.4053,233.1568,705.5952,237.57,714.3999" style="stroke:#181818;stroke-width:1.0;"/><text fill="#000000" font-family="sans-serif" font-size="13" lengthAdjust="spacing" textLength="49" x="236" y="648.5669">CTR&#39044;&#20272;</text></g><!--link ranker to rtb_handler--><g id="link_ranker_rtb_handler"><path d="M233.06,777.9099 C226.73,810.6299 218.0207,855.6993 212.4107,884.6693 " fill="none" id="ranker-to-rtb_handler" style="stroke:#181818;stroke-width:1.0;"/><polygon fill="#181818" points="211.27,890.5599,216.9081,882.4845,212.2206,885.6511,209.054,880.9636,211.27,890.5599" style="stroke:#181818;stroke-width:1.0;"/><text fill="#000000" font-family="sans-serif" font-size="13" lengthAdjust="spacing" textLength="52" x="226" y="832.5669">&#25490;&#24207;&#32467;&#26524;</text></g><!--link offline_model to ctr_pred--><g id="link_offline_model_ctr_pred"><path d="M539.36,308.3799 C492.16,349.4499 390.65,437.4799 304,510.6699 C292.43,520.4399 284.3698,527.1715 272.8698,536.7015 " fill="none" id="offline_model-to-ctr_pred" style="stroke:#181818;stroke-width:1.0;"/><polygon fill="#181818" points="268.25,540.5299,277.7321,537.8671,272.0999,537.3395,272.6275,531.7073,268.25,540.5299" style="stroke:#181818;stroke-width:1.0;"/><text fill="#000000" font-family="sans-serif" font-size="13" lengthAdjust="spacing" textLength="52" x="432" y="435.5669">&#27169;&#22411;&#26356;&#26032;</text></g><!--link ad_pool to GMN26--><g id="link_ad_pool_GMN26"><path d="M434.19,250.5399 C451.78,224.8099 479.86,191.2499 514.5,176.1699 C581.74,146.8899 610.75,150.6599 679.5,176.1699 C720.33,191.3199 756.79,226.3599 779.75,252.4499 " fill="none" id="ad_pool-GMN26" style="stroke:#181818;stroke-width:1.0;stroke-dasharray:7.0,7.0;"/></g><!--link ctr_pred to GMN29--><g id="link_ctr_pred_GMN29"><path d="M264.58,603.7099 C274.36,613.0499 284.86,623.5399 294,633.6699 C320.81,663.3799 348.75,700.4599 365.51,723.4799 " fill="none" id="ctr_pred-GMN29" style="stroke:#181818;stroke-width:1.0;stroke-dasharray:7.0,7.0;"/></g><!--link GMN35 to freq_ctrl--><g id="link_GMN35_freq_ctrl"><path d="M963.92,261.2899 C949.82,235.1399 922.74,193.6799 885.5,176.1699 C831.7,150.8799 406.15,155.2699 350.5,176.1699 C310.1,191.3399 274.27,226.3799 251.74,252.4599 " fill="none" id="GMN35-freq_ctrl" style="stroke:#181818;stroke-width:1.0;stroke-dasharray:7.0,7.0;"/></g><!--link GMN38 to pacing--><g id="link_GMN38_pacing"><path d="M750.91,407.5199 C731.97,393.7499 705.74,377.4699 679.5,370.1699 C536.8,330.4699 361.33,380.4599 276.57,410.5299 " fill="none" id="GMN38-pacing" style="stroke:#181818;stroke-width:1.0;stroke-dasharray:7.0,7.0;"/></g><!--link ranker to GMN41--><g id="link_ranker_GMN41"><path d="M253.05,714.6599 C267.21,687.2099 291.93,649.2199 326.5,632.1699 C396.86,597.4799 608.86,598.0599 679.5,632.1699 C718.64,651.0699 746.04,696.0399 759.8,723.5099 " fill="none" id="ranker-GMN41" style="stroke:#181818;stroke-width:1.0;stroke-dasharray:7.0,7.0;"/></g><text fill="#000000" font-family="sans-serif" font-size="14" lengthAdjust="spacing" textLength="281" x="370.75" y="974.6358">Ad Delivery System Architecture Overview</text><!--SRC=[TLNVJzjM57w_VyLLzh1D5HBGifK-JA8XbgPfAg8yJegCVG4Bn_OSGyUcIk57IQ0GeC1G1mk3GK5h5q2Z8E8E_fdSQ-U_sBdtck0u8tv9xlc-xvnxlkCJp_1CWkdL3LrRP8kRRECw-CSF_5rMyEl_hhFA1QlCqUrhfAcEPzWMxjDnFp6DIU9EuUTJUO_aS9-hZHaUqRm9b-1d49aqo0k4ykE6vQYkciF3gZO-wjeJbfwsJTl5dodY4qDeTiwnBM9v-1U4uQFOblVS-9dWhcxn-sbI8VDGwLRwPSnsTU96vrszNt_LturUnhGTuAgZ959kKr9w-DEkr9lXJxEQwFHHDtzQz7NLKuVL_Fq95ELXfhCzWQBqFkxiR95IDGyYz-Xa7YizcTvsdKVfFgM7ww3RcwROn-b6SQL-VPIAnAHmAjWuPgNByEIIdSsai9h74tdYjZBBX_JL8ULXoRnp9lNC8TRWq5D9fmTpmUgy476zuUoOQkbcGelk70Ur6xQpJ1Vt_bzHZbrmlay_RKhS3zONC67VMZhvwKiXRl2lsVoabkGszjVOXprMFgAb2s0fBlbnWbZQ54whZgIEm55MyrmpIHrGDSCQPSTxzFSjeDAbGgEmoovAuVcLP3e2aAG5CrUqw0VbOcD_hlxf59ZfeK4yu1BTuEsLLCYNTU0eIHvKhN7Yil8RMbi19aaFV2z_I9ehmgrMR9wovMgiSSr1Y_h6plu0fQxE5mzmP8tKKlMiOzjcWXEyyy6DiFftuC_ogrTU2x0zCc8Q5idcR9sOFF_dM2Q66QAhQuXF2Exe-2RkCdw2MsO1nMCSspGDa56jVnR0PdGNuB2eK02ntSFmP5z2qUrncrBXRQEm846DxNcKK6lQdO2Ykm27IMy14zuKcNz0LyiHB0fmpAs9W0AlW-eMdNyLeL0p9feYR0COJ8AS2XGTjRTCsXtui5HtsZecslm41-yhTV-IhY_JsWQteiMqZzF1yMlKOXZkS8tHCQ-rPEakspvdlvuYPDaUmG85NiTc8_ZmZgwMRet4T7abh5R3exbmQHQYREE4BKs7nRzezRVwrGB_4_1hS2wcBR9KZ0aYbevvZYZJiErvTewdYhq9yXeWnNPsvMNm0pYM2u9MAsph8kfUGiqa8wBi-1QWXJVGIhaqC1Hpyvw_lNA-xg77Du7SWVHiCpYeXTKzk8MeHQuJk3yjlUNRQBrydrXpESZHu7kZi2Nta52I_w9G4soAy7GsN9n9AZNTYDvwZCKwM5YdfNaXCMGxtybnkQF-1m00]--></g></svg>