<?xml version="1.0" encoding="us-ascii" standalone="no"?><svg xmlns="http://www.w3.org/2000/svg" xmlns:xlink="http://www.w3.org/1999/xlink" contentStyleType="text/css" height="2000.4px" preserveAspectRatio="none" style="width:1555px;height:2000px;background:#FFFFFF;" version="1.1" viewBox="0 0 1555 2000" width="1555.2px" zoomAndPan="magnify"><defs/><g><text fill="#000000" font-family="sans-serif" font-size="16.8" font-weight="bold" lengthAdjust="spacing" textLength="190.575" x="674.2125" y="53.9591">&#24191;&#21578;&#25237;&#25918;&#31995;&#32479;&#24635;&#20307;&#26550;&#26500;&#22270;</text><!--cluster ???--><g id="cluster_&#27969;&#37327;&#20391;"><path d="M10.2,1329.6815 L111.375,1329.6815 A4.5,4.5 0 0 1 114.375,1332.6815 L122.775,1407.763 L157.8,1407.763 A3,3 0 0 1 160.8,1410.763 L160.8,1582.2815 A3,3 0 0 1 157.8,1585.2815 L10.2,1585.2815 A3,3 0 0 1 7.2,1582.2815 L7.2,1332.6815 A3,3 0 0 1 10.2,1329.6815 " fill="#F5F5F5" style="stroke:#9E9E9E;stroke-width:1.7999999999999998;"/><line style="stroke:#9E9E9E;stroke-width:1.7999999999999998;" x1="7.2" x2="122.775" y1="1407.763" y2="1407.763"/><text fill="#424242" font-family="sans-serif" font-size="16.8" font-weight="bold" lengthAdjust="spacing" textLength="51.975" x="36" y="1374.0406">&#27969;&#37327;&#20391;</text></g><!--cluster ???--><g id="cluster_&#25509;&#20837;&#23618;"><path d="M208.2,1694.4815 L309.375,1694.4815 A4.5,4.5 0 0 1 312.375,1697.4815 L320.775,1772.563 L456.6,1772.563 A3,3 0 0 1 459.6,1775.563 L459.6,1907.4815 A3,3 0 0 1 456.6,1910.4815 L208.2,1910.4815 A3,3 0 0 1 205.2,1907.4815 L205.2,1697.4815 A3,3 0 0 1 208.2,1694.4815 " fill="#F5F5F5" style="stroke:#9E9E9E;stroke-width:1.7999999999999998;"/><line style="stroke:#9E9E9E;stroke-width:1.7999999999999998;" x1="205.2" x2="320.775" y1="1772.563" y2="1772.563"/><text fill="#424242" font-family="sans-serif" font-size="16.8" font-weight="bold" lengthAdjust="spacing" textLength="51.975" x="234" y="1738.8406">&#25509;&#20837;&#23618;</text></g><!--cluster ?????--><g id="cluster_&#22312;&#32447;&#26381;&#21153;&#23618;"><path d="M249,103.2815 L384.825,103.2815 A4.5,4.5 0 0 1 387.825,106.2815 L396.225,181.363 L487.8,181.363 A3,3 0 0 1 490.8,184.363 L490.8,1572.6815 A3,3 0 0 1 487.8,1575.6815 L249,1575.6815 A3,3 0 0 1 246,1572.6815 L246,106.2815 A3,3 0 0 1 249,103.2815 " fill="#F5F5F5" style="stroke:#9E9E9E;stroke-width:1.7999999999999998;"/><line style="stroke:#9E9E9E;stroke-width:1.7999999999999998;" x1="246" x2="396.225" y1="181.363" y2="181.363"/><text fill="#424242" font-family="sans-serif" font-size="16.8" font-weight="bold" lengthAdjust="spacing" textLength="86.625" x="274.8" y="147.6406">&#22312;&#32447;&#26381;&#21153;&#23618;</text></g><!--cluster ???--><g id="cluster_&#25968;&#25454;&#23618;"><path d="M522.6,446.4815 L623.775,446.4815 A4.5,4.5 0 0 1 626.775,449.4815 L635.175,524.563 L973.8,524.563 A3,3 0 0 1 976.8,527.563 L976.8,684.6815 A3,3 0 0 1 973.8,687.6815 L522.6,687.6815 A3,3 0 0 1 519.6,684.6815 L519.6,449.4815 A3,3 0 0 1 522.6,446.4815 " fill="#F5F5F5" style="stroke:#9E9E9E;stroke-width:1.7999999999999998;"/><line style="stroke:#9E9E9E;stroke-width:1.7999999999999998;" x1="519.6" x2="635.175" y1="524.563" y2="524.563"/><text fill="#424242" font-family="sans-serif" font-size="16.8" font-weight="bold" lengthAdjust="spacing" textLength="51.975" x="548.4" y="490.8406">&#25968;&#25454;&#23618;</text></g><!--entity user--><g id="elem_user"><ellipse cx="84" cy="1433.4815" fill="#E8F5E9" rx="9.6" ry="9.6" style="stroke:#4CAF50;stroke-width:0.6;"/><path d="M84,1443.0815 L84,1475.4815 M68.4,1452.6815 L99.6,1452.6815 M84,1475.4815 L68.4,1493.4815 M84,1475.4815 L99.6,1493.4815 " fill="none" style="stroke:#4CAF50;stroke-width:0.6;"/><text fill="#000000" font-family="sans-serif" font-size="16.8" lengthAdjust="spacing" textLength="67.2" x="50.4" y="1537.2406">&#29992;&#25143;&#35831;&#27714;</text></g><!--entity rtb_handler--><g id="elem_rtb_handler"><rect fill="#E3F2FD" height="103.6129" rx="3" ry="3" style="stroke:#1976D2;stroke-width:0.6;" width="216" x="224.4" y="1788.0815"/><rect fill="#E3F2FD" height="12" style="stroke:#1976D2;stroke-width:0.6;" width="18" x="416.4" y="1794.0815"/><rect fill="#E3F2FD" height="2.4" style="stroke:#1976D2;stroke-width:0.6;" width="4.8" x="414" y="1796.4815"/><rect fill="#E3F2FD" height="2.4" style="stroke:#1976D2;stroke-width:0.6;" width="4.8" x="414" y="1801.2815"/><text fill="#000000" font-family="sans-serif" font-size="14.4" lengthAdjust="spacing" textLength="120" x="266.4" y="1851.4752">OpenRTB&#35831;&#27714;&#22788;&#29702;</text></g><!--entity index_svc--><g id="elem_index_svc"><rect fill="#E3F2FD" height="123.2259" rx="3" ry="3" style="stroke:#1976D2;stroke-width:0.6;" width="182.4" x="289.2" y="196.8815"/><rect fill="#E3F2FD" height="12" style="stroke:#1976D2;stroke-width:0.6;" width="18" x="447.6" y="202.8815"/><rect fill="#E3F2FD" height="2.4" style="stroke:#1976D2;stroke-width:0.6;" width="4.8" x="445.2" y="205.2815"/><rect fill="#E3F2FD" height="2.4" style="stroke:#1976D2;stroke-width:0.6;" width="4.8" x="445.2" y="210.0815"/><text fill="#000000" font-family="sans-serif" font-size="14.4" lengthAdjust="spacing" textLength="86.4" x="331.2" y="260.2752">&#24191;&#21578;&#32034;&#24341;&#26381;&#21153;</text><text fill="#000000" font-family="sans-serif" font-size="14.4" lengthAdjust="spacing" textLength="68.4" x="331.2" y="279.8881">(Ad Index)</text></g><!--entity freq_ctrl--><g id="elem_freq_ctrl"><rect fill="#E3F2FD" height="123.2259" rx="3" ry="3" style="stroke:#1976D2;stroke-width:0.6;" width="205.2" x="265.8" y="542.4815"/><rect fill="#E3F2FD" height="12" style="stroke:#1976D2;stroke-width:0.6;" width="18" x="447" y="548.4815"/><rect fill="#E3F2FD" height="2.4" style="stroke:#1976D2;stroke-width:0.6;" width="4.8" x="444.6" y="550.8815"/><rect fill="#E3F2FD" height="2.4" style="stroke:#1976D2;stroke-width:0.6;" width="4.8" x="444.6" y="555.6815"/><text fill="#000000" font-family="sans-serif" font-size="14.4" lengthAdjust="spacing" textLength="57.6" x="307.8" y="605.8752">&#39057;&#27425;&#25511;&#21046;</text><text fill="#000000" font-family="sans-serif" font-size="14.4" lengthAdjust="spacing" textLength="109.2" x="307.8" y="625.4881">(Frequency Cap)</text></g><!--entity pacing--><g id="elem_pacing"><rect fill="#E3F2FD" height="123.2259" rx="3" ry="3" style="stroke:#1976D2;stroke-width:0.6;" width="169.2" x="265.8" y="813.6815"/><rect fill="#E3F2FD" height="12" style="stroke:#1976D2;stroke-width:0.6;" width="18" x="411" y="819.6815"/><rect fill="#E3F2FD" height="2.4" style="stroke:#1976D2;stroke-width:0.6;" width="4.8" x="408.6" y="822.0815"/><rect fill="#E3F2FD" height="2.4" style="stroke:#1976D2;stroke-width:0.6;" width="4.8" x="408.6" y="826.8815"/><text fill="#000000" font-family="sans-serif" font-size="14.4" lengthAdjust="spacing" textLength="73.2" x="307.8" y="877.0752">Pacing&#27169;&#22359;</text><text fill="#000000" font-family="sans-serif" font-size="14.4" lengthAdjust="spacing" textLength="67.2" x="307.8" y="896.6881">(&#21248;&#36895;&#28040;&#36153;)</text></g><!--entity ctr_pred--><g id="elem_ctr_pred"><rect fill="#E3F2FD" height="123.2259" rx="3" ry="3" style="stroke:#1976D2;stroke-width:0.6;" width="196.8" x="270" y="1080.0815"/><rect fill="#E3F2FD" height="12" style="stroke:#1976D2;stroke-width:0.6;" width="18" x="442.8" y="1086.0815"/><rect fill="#E3F2FD" height="2.4" style="stroke:#1976D2;stroke-width:0.6;" width="4.8" x="440.4" y="1088.4815"/><rect fill="#E3F2FD" height="2.4" style="stroke:#1976D2;stroke-width:0.6;" width="4.8" x="440.4" y="1093.2815"/><text fill="#000000" font-family="sans-serif" font-size="14.4" lengthAdjust="spacing" textLength="72" x="312" y="1143.4752">&#28857;&#20987;&#29575;&#39044;&#20272;</text><text fill="#000000" font-family="sans-serif" font-size="14.4" lengthAdjust="spacing" textLength="100.8" x="312" y="1163.0881">(CTR Predictor)</text></g><!--entity ranker--><g id="elem_ranker"><rect fill="#E3F2FD" height="123.2259" rx="3" ry="3" style="stroke:#1976D2;stroke-width:0.6;" width="174" x="295.8" y="1432.8815"/><rect fill="#E3F2FD" height="12" style="stroke:#1976D2;stroke-width:0.6;" width="18" x="445.8" y="1438.8815"/><rect fill="#E3F2FD" height="2.4" style="stroke:#1976D2;stroke-width:0.6;" width="4.8" x="443.4" y="1441.2815"/><rect fill="#E3F2FD" height="2.4" style="stroke:#1976D2;stroke-width:0.6;" width="4.8" x="443.4" y="1446.0815"/><text fill="#000000" font-family="sans-serif" font-size="14.4" lengthAdjust="spacing" textLength="75.6" x="337.8" y="1496.2752">Ranker&#25490;&#24207;</text><text fill="#000000" font-family="sans-serif" font-size="14.4" lengthAdjust="spacing" textLength="78" x="337.8" y="1515.8881">(eCPM&#25490;&#24207;)</text></g><!--entity ad_pool--><g id="elem_ad_pool"><path d="M538.8,552.0815 C538.8,540.0815 640.8,540.0815 640.8,540.0815 C640.8,540.0815 742.8,540.0815 742.8,552.0815 L742.8,656.6445 C742.8,668.6445 640.8,668.6445 640.8,668.6445 C640.8,668.6445 538.8,668.6445 538.8,656.6445 L538.8,552.0815 " fill="#FFF3E0" style="stroke:#FF9800;stroke-width:0.6;"/><path d="M538.8,552.0815 C538.8,564.0815 640.8,564.0815 640.8,564.0815 C640.8,564.0815 742.8,564.0815 742.8,552.0815 " fill="none" style="stroke:#FF9800;stroke-width:0.6;"/><text fill="#000000" font-family="sans-serif" font-size="16.8" lengthAdjust="spacing" textLength="50.4" x="574.8" y="610.8406">&#24191;&#21578;&#27744;</text><text fill="#000000" font-family="sans-serif" font-size="16.8" lengthAdjust="spacing" textLength="132" x="574.8" y="633.7221">(10w+ OpenRTB)</text></g><!--entity offline_model--><g id="elem_offline_model"><path d="M784.8,563.4815 C784.8,551.4815 871.2,551.4815 871.2,551.4815 C871.2,551.4815 957.6,551.4815 957.6,563.4815 L957.6,645.163 C957.6,657.163 871.2,657.163 871.2,657.163 C871.2,657.163 784.8,657.163 784.8,645.163 L784.8,563.4815 " fill="#FFF3E0" style="stroke:#FF9800;stroke-width:0.6;"/><path d="M784.8,563.4815 C784.8,575.4815 871.2,575.4815 871.2,575.4815 C871.2,575.4815 957.6,575.4815 957.6,563.4815 " fill="none" style="stroke:#FF9800;stroke-width:0.6;"/><text fill="#000000" font-family="sans-serif" font-size="16.8" lengthAdjust="spacing" textLength="100.8" x="820.8" y="622.2406">&#31163;&#32447;&#35757;&#32451;&#27169;&#22411;</text></g><g id="elem_GMN26"><path d="M1085.4,542.4815 L1085.4,666.2232 L1326.6,666.2232 L1326.6,554.4815 L1314.6,542.4815 L1085.4,542.4815 " fill="#FEFFDD" style="stroke:#181818;stroke-width:0.6;"/><path d="M1314.6,542.4815 L1314.6,554.4815 L1326.6,554.4815 L1314.6,542.4815 " fill="#FEFFDD" style="stroke:#181818;stroke-width:1.2;"/><text fill="#000000" font-family="sans-serif" font-size="15.6" lengthAdjust="spacing" textLength="168" x="1116.6" y="589.1579">&#31526;&#21512; OpenRTB &#21327;&#35758;&#35268;&#33539;</text><text fill="#000000" font-family="sans-serif" font-size="15.6" lengthAdjust="spacing" textLength="109.2" x="1116.6" y="610.4051">&#25903;&#25345;&#33258;&#23450;&#20041;&#26500;&#24314;</text><text fill="#000000" font-family="sans-serif" font-size="15.6" lengthAdjust="spacing" textLength="103.2" x="1116.6" y="631.6524">10w+ &#24191;&#21578;&#25968;&#25454;</text></g><g id="elem_GMN29"><path d="M511.8,1443.6815 L511.8,1546.1759 L690.6,1546.1759 L690.6,1455.6815 L678.6,1443.6815 L511.8,1443.6815 " fill="#FEFFDD" style="stroke:#181818;stroke-width:0.6;"/><path d="M678.6,1443.6815 L678.6,1455.6815 L690.6,1455.6815 L678.6,1443.6815 " fill="#FEFFDD" style="stroke:#181818;stroke-width:1.2;"/><text fill="#000000" font-family="sans-serif" font-size="15.6" lengthAdjust="spacing" textLength="105.6" x="543" y="1490.3579">&#31163;&#32447;&#23450;&#26399;&#35757;&#32451; +</text><text fill="#000000" font-family="sans-serif" font-size="15.6" lengthAdjust="spacing" textLength="93.6" x="543" y="1511.6051">&#22312;&#32447;&#23454;&#26102;&#39044;&#20272;</text></g><g id="elem_GMN32"><path d="M513.6,217.8815 L513.6,253.8815 L471.804,258.6815 L513.6,263.4815 L513.6,299.1287 A0,0 0 0 0 513.6,299.1287 L727.2,299.1287 A0,0 0 0 0 727.2,299.1287 L727.2,229.8815 L715.2,217.8815 L513.6,217.8815 A0,0 0 0 0 513.6,217.8815 " fill="#FEFFDD" style="stroke:#181818;stroke-width:0.6;"/><path d="M715.2,217.8815 L715.2,229.8815 L727.2,229.8815 L715.2,217.8815 " fill="#FEFFDD" style="stroke:#181818;stroke-width:0.6;"/><text fill="#000000" font-family="sans-serif" font-size="15.6" lengthAdjust="spacing" textLength="140.4" x="544.8" y="264.5579">&#20498;&#25490;&#32034;&#24341; + &#24555;&#36895;&#26816;&#32034;</text></g><g id="elem_GMN35"><path d="M1368.6,553.2815 L1368.6,655.7759 L1547.4,655.7759 L1547.4,565.2815 L1535.4,553.2815 L1368.6,553.2815 " fill="#FEFFDD" style="stroke:#181818;stroke-width:0.6;"/><path d="M1535.4,553.2815 L1535.4,565.2815 L1547.4,565.2815 L1535.4,553.2815 " fill="#FEFFDD" style="stroke:#181818;stroke-width:1.2;"/><text fill="#000000" font-family="sans-serif" font-size="15.6" lengthAdjust="spacing" textLength="105.6" x="1399.8" y="599.9579">&#29992;&#25143;&#23637;&#31034;&#35745;&#25968; +</text><text fill="#000000" font-family="sans-serif" font-size="15.6" lengthAdjust="spacing" textLength="93.6" x="1399.8" y="621.2051">&#39057;&#27425;&#35268;&#21017;&#24341;&#25806;</text></g><g id="elem_GMN38"><path d="M1084.2,824.4815 L1084.2,926.9759 L1263,926.9759 L1263,836.4815 L1251,824.4815 L1084.2,824.4815 " fill="#FEFFDD" style="stroke:#181818;stroke-width:0.6;"/><path d="M1251,824.4815 L1251,836.4815 L1263,836.4815 L1251,824.4815 " fill="#FEFFDD" style="stroke:#181818;stroke-width:1.2;"/><text fill="#000000" font-family="sans-serif" font-size="15.6" lengthAdjust="spacing" textLength="105.6" x="1115.4" y="871.1579">&#39044;&#31639;&#28040;&#32791;&#25511;&#21046; +</text><text fill="#000000" font-family="sans-serif" font-size="15.6" lengthAdjust="spacing" textLength="93.6" x="1115.4" y="892.4051">&#25237;&#25918;&#36895;&#29575;&#35843;&#33410;</text></g><g id="elem_GMN41"><path d="M1084.8,1443.6815 L1084.8,1546.1759 L1243.2,1546.1759 L1243.2,1455.6815 L1231.2,1443.6815 L1084.8,1443.6815 " fill="#FEFFDD" style="stroke:#181818;stroke-width:0.6;"/><path d="M1231.2,1443.6815 L1231.2,1455.6815 L1243.2,1455.6815 L1231.2,1443.6815 " fill="#FEFFDD" style="stroke:#181818;stroke-width:1.2;"/><text fill="#000000" font-family="sans-serif" font-size="15.6" lengthAdjust="spacing" textLength="85.2" x="1116" y="1490.3579">eCPM&#25171;&#20998; +</text><text fill="#000000" font-family="sans-serif" font-size="15.6" lengthAdjust="spacing" textLength="68.4" x="1116" y="1511.6051">TopK&#25490;&#24207;</text></g><!--link user to rtb_handler--><g id="link_user_rtb_handler"><path d="M50.244,1566.1055 C38.592,1600.8815 32.652,1642.3655 51.6,1675.2815 C88.656,1739.6735 155.2548,1778.3399 217.6668,1803.2999 " fill="none" id="user-to-rtb_handler" style="stroke:#181818;stroke-width:1.2;"/><polygon fill="#181818" points="224.352,1805.9735,216.1066,1797.5063,218.781,1803.7455,212.5418,1806.42,224.352,1805.9735" style="stroke:#181818;stroke-width:1.2;"/><text fill="#000000" font-family="sans-serif" font-size="15.6" lengthAdjust="spacing" textLength="98.4" x="76.8" y="1646.3579">OpenRTB&#35831;&#27714;</text></g><!--link rtb_handler to user--><g id="link_rtb_handler_user"><path d="M304.788,1787.7695 C287.244,1755.5615 264.084,1712.9735 243.6,1675.2815 C226.512,1643.8295 227.388,1632.5735 205.2,1604.4815 C186.9,1581.3095 168.8188,1563.6416 147.3508,1545.3056 " fill="none" id="rtb_handler-to-user" style="stroke:#181818;stroke-width:1.2;"/><polygon fill="#181818" points="141.876,1540.6295,146.9709,1551.2936,146.4384,1544.5263,153.2057,1543.9938,141.876,1540.6295" style="stroke:#181818;stroke-width:1.2;"/><text fill="#000000" font-family="sans-serif" font-size="15.6" lengthAdjust="spacing" textLength="62.4" x="268.8" y="1646.3579">&#31454;&#20215;&#21709;&#24212;</text></g><!--link rtb_handler to index_svc--><g id="link_rtb_handler_index_svc"><path d="M440.4,1832.9975 C634.26,1816.7255 1021.2,1752.1415 1021.2,1495.8815 C1021.2,603.0815 1021.2,603.0815 1021.2,603.0815 C1021.2,526.6295 1027.572,494.0495 976.8,436.8815 C830.004,271.5815 703.74,387.9215 493.2,320.4815 C486.108,318.2135 485.5768,318.2905 478.4728,315.2905 " fill="none" id="rtb_handler-to-index_svc" style="stroke:#181818;stroke-width:1.2;"/><polygon fill="#181818" points="471.84,312.4895,479.9219,321.1129,477.3673,314.8237,483.6566,312.2692,471.84,312.4895" style="stroke:#181818;stroke-width:1.2;"/><text fill="#000000" font-family="sans-serif" font-size="15.6" lengthAdjust="spacing" textLength="62.4" x="1046.4" y="1015.1579">&#24191;&#21578;&#26816;&#32034;</text></g><!--link index_svc to ad_pool--><g id="link_index_svc_ad_pool"><path d="M471.612,311.0735 C478.836,314.4455 486.084,317.6255 493.2,320.4815 C549.18,342.8855 585.852,309.7895 624,356.4815 C665.412,407.1575 664.532,477.8482 656.18,532.4842 " fill="none" id="index_svc-to-ad_pool" style="stroke:#181818;stroke-width:1.2;"/><polygon fill="#181818" points="655.092,539.6015,661.4689,529.6509,655.9987,533.6704,651.9791,528.2002,655.092,539.6015" style="stroke:#181818;stroke-width:1.2;"/><text fill="#000000" font-family="sans-serif" font-size="15.6" lengthAdjust="spacing" textLength="62.4" x="678" y="398.3579">&#26597;&#35810;&#24191;&#21578;</text></g><!--link ad_pool to index_svc--><g id="link_ad_pool_index_svc"><path d="M579.048,540.0215 C549.096,507.7415 513.696,466.9655 486,427.2815 C465.504,397.9295 466.38,386.9495 447.6,356.4815 C440.316,344.6495 436.218,338.2462 428.166,326.4622 " fill="none" id="ad_pool-to-index_svc" style="stroke:#181818;stroke-width:1.2;"/><polygon fill="#181818" points="424.104,320.5175,426.2339,332.1426,427.489,325.4714,434.1602,326.7266,424.104,320.5175" style="stroke:#181818;stroke-width:1.2;"/><text fill="#000000" font-family="sans-serif" font-size="15.6" lengthAdjust="spacing" textLength="78" x="511.2" y="398.3579">&#20505;&#36873;&#24191;&#21578;&#38598;</text></g><!--link index_svc to freq_ctrl--><g id="link_index_svc_freq_ctrl"><path d="M343.236,320.4935 C337.764,332.0615 332.976,344.3615 330,356.4815 C314.676,418.9775 327.911,485.062 343.535,535.33 " fill="none" id="index_svc-to-freq_ctrl" style="stroke:#181818;stroke-width:1.2;"/><polygon fill="#181818" points="345.672,542.2055,347.0502,530.4675,343.8912,536.4759,337.8828,533.3169,345.672,542.2055" style="stroke:#181818;stroke-width:1.2;"/><text fill="#000000" font-family="sans-serif" font-size="15.6" lengthAdjust="spacing" textLength="62.4" x="355.2" y="398.3579">&#20505;&#36873;&#24191;&#21578;</text></g><!--link freq_ctrl to pacing--><g id="link_freq_ctrl_pacing"><path d="M364.344,666.1415 C361.392,710.1215 357.9135,762.1576 354.9615,806.1976 " fill="none" id="freq_ctrl-to-pacing" style="stroke:#181818;stroke-width:1.2;"/><polygon fill="#181818" points="354.48,813.3815,359.9916,802.9267,354.8813,807.3949,350.413,802.2847,354.48,813.3815" style="stroke:#181818;stroke-width:1.2;"/><text fill="#000000" font-family="sans-serif" font-size="15.6" lengthAdjust="spacing" textLength="78" x="387.6" y="748.7579">&#36807;&#28388;&#21518;&#24191;&#21578;</text></g><!--link pacing to ctr_pred--><g id="link_pacing_ctr_pred"><path d="M354.552,937.5815 C357.456,980.2175 360.8431,1029.7821 363.7471,1072.4541 " fill="none" id="pacing-to-ctr_pred" style="stroke:#181818;stroke-width:1.2;"/><polygon fill="#181818" points="364.236,1079.6375,368.2916,1068.5365,363.8286,1073.6513,358.7138,1069.1883,364.236,1079.6375" style="stroke:#181818;stroke-width:1.2;"/><text fill="#000000" font-family="sans-serif" font-size="15.6" lengthAdjust="spacing" textLength="78" x="387.6" y="1015.1579">&#39044;&#31639;&#20869;&#24191;&#21578;</text></g><!--link ctr_pred to ranker--><g id="link_ctr_pred_ranker"><path d="M370.896,1203.7175 C373.524,1267.7735 377.3562,1361.0076 379.9962,1425.2196 " fill="none" id="ctr_pred-to-ranker" style="stroke:#181818;stroke-width:1.2;"/><polygon fill="#181818" points="380.292,1432.4135,384.6443,1421.4254,380.0455,1426.4186,375.0524,1421.8198,380.292,1432.4135" style="stroke:#181818;stroke-width:1.2;"/><text fill="#000000" font-family="sans-serif" font-size="15.6" lengthAdjust="spacing" textLength="58.8" x="400.8" y="1281.5579">CTR&#39044;&#20272;</text></g><!--link ranker to rtb_handler--><g id="link_ranker_rtb_handler"><path d="M378.768,1556.6975 C376.044,1591.5335 371.868,1635.9935 366,1675.2815 C360.324,1713.3335 353.0407,1748.8714 345.8527,1780.9834 " fill="none" id="ranker-to-rtb_handler" style="stroke:#181818;stroke-width:1.2;"/><polygon fill="#181818" points="344.28,1788.0095,351.3232,1778.5188,345.5906,1782.1544,341.955,1776.4218,344.28,1788.0095" style="stroke:#181818;stroke-width:1.2;"/><text fill="#000000" font-family="sans-serif" font-size="15.6" lengthAdjust="spacing" textLength="62.4" x="399.6" y="1646.3579">&#25490;&#24207;&#32467;&#26524;</text></g><!--link offline_model to ctr_pred--><g id="link_offline_model_ctr_pred"><path d="M833.868,657.2135 C770.688,742.9175 636.24,917.4455 500.4,1044.0815 C487.212,1056.3815 478.1545,1064.1335 463.4065,1075.4375 " fill="none" id="offline_model-to-ctr_pred" style="stroke:#181818;stroke-width:1.2;"/><polygon fill="#181818" points="457.692,1079.8175,469.1838,1077.0571,462.4541,1076.1675,463.3437,1069.4378,457.692,1079.8175" style="stroke:#181818;stroke-width:1.2;"/><text fill="#000000" font-family="sans-serif" font-size="15.6" lengthAdjust="spacing" textLength="62.4" x="735.6" y="881.9579">&#27169;&#22411;&#26356;&#26032;</text></g><!--link ad_pool to GMN26--><g id="link_ad_pool_GMN26"><path d="M662.28,539.6375 C684.012,485.7815 723.36,412.6055 785.4,378.6815 C881.328,326.2295 933.24,330.5255 1031.4,378.6815 C1100.316,412.4855 1149.792,488.0615 1178.1,542.4335 " fill="none" id="ad_pool-GMN26" style="stroke:#181818;stroke-width:1.2;stroke-dasharray:7.0,7.0;"/></g><!--link ctr_pred to GMN29--><g id="link_ctr_pred_GMN29"><path d="M459.756,1203.7895 C472.416,1214.7335 484.464,1226.8055 494.4,1239.6815 C542.46,1301.9255 572.856,1388.9735 588.444,1443.2495 " fill="none" id="ctr_pred-GMN29" style="stroke:#181818;stroke-width:1.2;stroke-dasharray:7.0,7.0;"/></g><!--link GMN35 to freq_ctrl--><g id="link_GMN35_freq_ctrl"><path d="M1444.572,553.1615 C1427.28,498.8975 1391.436,415.9535 1326.6,378.6815 C1250.88,335.1575 618.876,339.9575 540.6,378.6815 C472.152,412.5455 423.456,488.1095 395.7,542.4575 " fill="none" id="GMN35-freq_ctrl" style="stroke:#181818;stroke-width:1.2;stroke-dasharray:7.0,7.0;"/></g><!--link GMN38 to pacing--><g id="link_GMN38_pacing"><path d="M1129.788,824.2655 C1104.12,798.2855 1069.32,769.3415 1031.4,755.4815 C873.108,697.6175 817.728,723.7775 652.2,755.4815 C575.916,770.0855 494.34,803.7215 435.264,831.6695 " fill="none" id="GMN38-pacing" style="stroke:#181818;stroke-width:1.2;stroke-dasharray:7.0,7.0;"/></g><!--link ranker to GMN41--><g id="link_ranker_GMN41"><path d="M398.04,1432.6175 C415.38,1376.9135 449.688,1298.4695 511.8,1261.8815 C611.28,1203.2735 931.572,1203.8615 1031.4,1261.8815 C1098.36,1300.7975 1134.312,1387.5695 1151.256,1443.4895 " fill="none" id="ranker-GMN41" style="stroke:#181818;stroke-width:1.2;stroke-dasharray:7.0,7.0;"/></g><text fill="#000000" font-family="sans-serif" font-size="16.8" lengthAdjust="spacing" textLength="337.2" x="600.9" y="1960.8406">Ad Delivery System Architecture Overview</text><!--SRC=[VLPTJnj757sVNp5o7zegfJ8cJaCUAX7ZbQ8gYaLuZ6GjkuDPOU-wwuMKL9NCHx1nm7oPMYd411S2RL9ZL0B16yoVySok_qLdTjPVwr3lYttlEMTcxhbpruPYn174LpTuCqToEwHGj_urBNEVfCt6zJOfNP3I4jwj0qbC6egcmX4PZgAuCelqEVXqBcMW11pHfId5G98neoFuX6Pc5VGSWA-XNQbRrnNAnjTbNAtXqqzuQnMEHXvzXyibd7jh5KpyQT7wgzOideEK9DAD37uV020rhQX9KHSJS4AKfcEwDgFA8IskwV0hmVbq8IGjaTHKf1hmLm3fHz1KuwdoWYe5dDyFlGhX8I4WZFASfij8T-E3mp_S6ms0txgqavGhnf2htASa1DdJhpGSPazxDsxqRe0zFVgoQ8WJOkhs1GHXAEplNq0GXk_x_JrIecJGp2qwuVj2C3pShtCtD284cKxRAxj-PL- -wIc1B2jg30RyNwfvnCqE1lkhzd-vnw8UKrGOx1PLDQCL7_83qAgzZtoSRsRM6_LZdtiyVbIVLJWXsKlxz9ASBVYWc88pAQIpitIO-IFyyWYpD6TsUiNt98dKiV67d8uFbwoDPKT4DoQYKw8gnprQUE_4gjsGlJMSE_Yo8hz2rdaPVzxXk6VgD_IsF59bzCktZhZ2laPJivANsonlaWy797-CinUK9UZevncaIdCm92OvTPA6efAXnxtKY2ZHAfEJ0_ocIAbuDTrCxvEBh7r-nPb91-2bMGjNE6DQ-KoplDJuNANCqFWOZEX8LbXvEPMk5qtIa9Sy9ghJI2VvBLnRfqmKYZpcFpXDTzAzLknKoLgbgt3jrdVhHixUKgL1__CxqBM6QuboDAbfSG_7UcTID-pAFvQvo8vUUkM0jSd9kAAYQ4AJKPotDL-OzX3Us0IiG-30m8_TBiC7iASNG7UEOTkcKQIxrp_Jr6RGIJ2Okr4A8lj7zccPGq4htAUKVjrCht1GStSPUDJQTdkWe9DWCEujnTWt6M8Uuesy2tCJ3DCoaQAerrQbY9TVkYZGpZb5SMoZCDe9l2k06-el6RVRCkaBOg-lOawP7q3hVQbXNkBjDLmhC2jwJFiuRvsy0Zs6mG5TYKqPlLlcxfBTS_9x5G0s8w23ebvtzORruHtUoBQCX7XjtQvKxECbUtMHPadXbApEsvc_SUMFnjKAUw6PDHftkisrr6aJW5JPcKFkIXEQOMW9jbJNJU37e59aRvyV1jwXOJuWSAL4YXTkzJngSJJfRBjx2k3q5Yqb7ngGRkRcFRkzlBzkeNTF0Zu3yTcETLYpAmVq5CvU-3YXvyVPrsmQRUTl4siF1zuQR6waYtmEEKhy7m7T4vqKTdNHpYrubTfkkBSUGcSSh6pZxB8ZCQubV-Bjqg7-1m00]--></g></svg>