<?xml version="1.0" encoding="us-ascii" standalone="no"?><svg xmlns="http://www.w3.org/2000/svg" xmlns:xlink="http://www.w3.org/1999/xlink" contentStyleType="text/css" height="1301px" preserveAspectRatio="none" style="width:782px;height:1301px;background:#FFFFFF;" version="1.1" viewBox="0 0 782 1301" width="782px" zoomAndPan="magnify"><defs/><g><text fill="#000000" font-family="sans-serif" font-size="14" font-weight="bold" lengthAdjust="spacing" textLength="161.0625" x="308.9688" y="34.9659">DeepFM &#21069;&#21521;&#20256;&#25773;&#27969;&#31243;&#22270;</text><ellipse cx="383.5" cy="60.0679" fill="#222222" rx="10" ry="10" style="stroke:#222222;stroke-width:1.0;"/><path d="M435.5,84.8528 L435.5,103.5589 L415.5,107.5589 L435.5,111.5589 L435.5,130.2649 A0,0 0 0 0 435.5,130.2649 L607.125,130.2649 A0,0 0 0 0 607.125,130.2649 L607.125,94.8528 L597.125,84.8528 L435.5,84.8528 A0,0 0 0 0 435.5,84.8528 " fill="#FEFFDD" style="stroke:#181818;stroke-width:0.5;"/><path d="M597.125,84.8528 L597.125,94.8528 L607.125,94.8528 L597.125,84.8528 " fill="#FEFFDD" style="stroke:#181818;stroke-width:0.5;"/><text fill="#000000" font-family="sans-serif" font-size="13" font-weight="bold" lengthAdjust="spacing" textLength="53.625" x="441.5" y="103.7499">&#31232;&#30095;&#29305;&#24449;</text><text fill="#000000" font-family="sans-serif" font-size="13" lengthAdjust="spacing" textLength="97" x="495.125" y="103.7499">: &#29992;&#25143;ID&#12289;&#24191;&#21578;ID</text><text fill="#000000" font-family="sans-serif" font-size="13" font-weight="bold" lengthAdjust="spacing" textLength="53.625" x="441.5" y="121.4559">&#31264;&#23494;&#29305;&#24449;</text><text fill="#000000" font-family="sans-serif" font-size="13" lengthAdjust="spacing" textLength="71" x="495.125" y="121.4559">: &#24180;&#40836;&#12289;&#26102;&#38388;</text><rect fill="#FFFFFF" height="34.9819" rx="12.5" ry="12.5" style="stroke:#181818;stroke-width:0.5;" width="64" x="351.5" y="90.0679"/><text fill="#000000" font-family="sans-serif" font-size="11" lengthAdjust="spacing" textLength="44" x="361.5" y="111.8268">&#36755;&#20837;&#25968;&#25454;</text><rect fill="#FFFFFF" height="34.9819" rx="12.5" ry="12.5" style="stroke:#181818;stroke-width:0.5;" width="75" x="346" y="150.2649"/><text fill="#000000" font-family="sans-serif" font-size="11" lengthAdjust="spacing" textLength="55" x="356" y="172.0238">&#29305;&#24449;&#39044;&#22788;&#29702;</text><line style="stroke:#181818;stroke-width:1.5;" x1="249.5" x2="584" y1="205.2468" y2="205.2468"/><rect fill="#FFFFFF" height="34.9819" rx="12.5" ry="12.5" style="stroke:#181818;stroke-width:0.5;" width="64" x="217.5" y="253.7196"/><text fill="#000000" font-family="sans-serif" font-size="11" lengthAdjust="spacing" textLength="44" x="227.5" y="275.4785">&#31232;&#30095;&#29305;&#24449;</text><rect fill="#FFFFFF" height="34.9819" rx="12.5" ry="12.5" style="stroke:#181818;stroke-width:0.5;" width="75" x="212" y="323.7015"/><text fill="#000000" font-family="sans-serif" font-size="11" lengthAdjust="spacing" textLength="55" x="222" y="345.4604">&#23884;&#20837;&#23618;&#26597;&#25214;</text><rect fill="#FFFFFF" height="34.9819" rx="12.5" ry="12.5" style="stroke:#181818;stroke-width:0.5;" width="86" x="206.5" y="393.6834"/><text fill="#000000" font-family="sans-serif" font-size="11" lengthAdjust="spacing" textLength="66" x="216.5" y="415.4423">&#29983;&#25104;&#23884;&#20837;&#21521;&#37327;</text><line style="stroke:#181818;stroke-width:1.5;" x1="54" x2="300" y1="463.6653" y2="463.6653"/><rect fill="#FFFFFF" height="34.9819" rx="12.5" ry="12.5" style="stroke:#181818;stroke-width:0.5;" width="72" x="18" y="485.1653"/><text fill="#000000" font-family="sans-serif" font-size="11" lengthAdjust="spacing" textLength="52" x="28" y="506.9242">FM &#19968;&#38454;&#39033;</text><path d="M117,555.1471 L117,582.7062 L97,586.7062 L117,590.7062 L117,618.2652 A0,0 0 0 0 117,618.2652 L229,618.2652 A0,0 0 0 0 229,618.2652 L229,565.1471 L219,555.1471 L117,555.1471 A0,0 0 0 0 117,555.1471 " fill="#90EE90" style="stroke:#181818;stroke-width:0.5;"/><path d="M219,555.1471 L219,565.1471 L229,565.1471 L219,555.1471 " fill="#90EE90" style="stroke:#181818;stroke-width:0.5;"/><text fill="#000000" font-family="sans-serif" font-size="13" font-weight="bold" lengthAdjust="spacing" textLength="53.625" x="123" y="574.0442">&#19968;&#38454;&#20132;&#20114;</text><text fill="#000000" font-family="sans-serif" font-size="13" lengthAdjust="spacing" textLength="91" x="123" y="591.7502">&#25429;&#25417;&#21333;&#20010;&#29305;&#24449;&#30340;</text><text fill="#000000" font-family="sans-serif" font-size="13" lengthAdjust="spacing" textLength="52" x="123" y="609.4562">&#30452;&#25509;&#36129;&#29486;</text><rect fill="#FFFFFF" height="34.9819" rx="12.5" ry="12.5" style="stroke:#181818;stroke-width:0.5;" width="86" x="11" y="569.2152"/><text fill="#000000" font-family="sans-serif" font-size="11" lengthAdjust="spacing" textLength="66" x="21" y="590.9741">&#32447;&#24615;&#21152;&#26435;&#27714;&#21644;</text><rect fill="#FFFFFF" height="34.9819" rx="12.5" ry="12.5" style="stroke:#181818;stroke-width:0.5;" width="72" x="264" y="485.1653"/><text fill="#000000" font-family="sans-serif" font-size="11" lengthAdjust="spacing" textLength="52" x="274" y="506.9242">FM &#20108;&#38454;&#39033;</text><path d="M363,555.1471 L363,582.7062 L343,586.7062 L363,590.7062 L363,618.2652 A0,0 0 0 0 363,618.2652 L488,618.2652 A0,0 0 0 0 488,618.2652 L488,565.1471 L478,555.1471 L363,555.1471 A0,0 0 0 0 363,555.1471 " fill="#90EE90" style="stroke:#181818;stroke-width:0.5;"/><path d="M478,555.1471 L478,565.1471 L488,565.1471 L478,555.1471 " fill="#90EE90" style="stroke:#181818;stroke-width:0.5;"/><text fill="#000000" font-family="sans-serif" font-size="13" font-weight="bold" lengthAdjust="spacing" textLength="53.625" x="369" y="574.0442">&#20108;&#38454;&#20132;&#20114;</text><text fill="#000000" font-family="sans-serif" font-size="13" lengthAdjust="spacing" textLength="104" x="369" y="591.7502">&#33258;&#21160;&#23398;&#20064;&#29305;&#24449;&#32452;&#21512;</text><text fill="#000000" font-family="sans-serif" font-size="13" lengthAdjust="spacing" textLength="104" x="369" y="609.4562">&#26080;&#38656;&#20154;&#24037;&#29305;&#24449;&#24037;&#31243;</text><rect fill="#FFFFFF" height="34.9819" rx="12.5" ry="12.5" style="stroke:#181818;stroke-width:0.5;" width="86" x="257" y="569.2152"/><text fill="#000000" font-family="sans-serif" font-size="11" lengthAdjust="spacing" textLength="66" x="267" y="590.9741">&#29305;&#24449;&#21521;&#37327;&#20132;&#21449;</text><line style="stroke:#181818;stroke-width:1.5;" x1="54" x2="300" y1="638.2652" y2="638.2652"/><rect fill="#FFFFFF" height="34.9819" rx="12.5" ry="12.5" style="stroke:#181818;stroke-width:0.5;" width="65" x="217" y="674.7652"/><text fill="#000000" font-family="sans-serif" font-size="11" lengthAdjust="spacing" textLength="45" x="227" y="696.5241">FM &#36755;&#20986;]</text><rect fill="#FFFFFF" height="34.9819" rx="12.5" ry="12.5" style="stroke:#181818;stroke-width:0.5;" width="64" x="552" y="225.2468"/><text fill="#000000" font-family="sans-serif" font-size="11" lengthAdjust="spacing" textLength="44" x="562" y="247.0057">&#31264;&#23494;&#29305;&#24449;</text><rect fill="#FFFFFF" height="34.9819" rx="12.5" ry="12.5" style="stroke:#181818;stroke-width:0.5;" width="64" x="552" y="295.2287"/><text fill="#000000" font-family="sans-serif" font-size="11" lengthAdjust="spacing" textLength="44" x="562" y="316.9876">&#29305;&#24449;&#25340;&#25509;</text><rect fill="#FFFFFF" height="34.9819" rx="12.5" ry="12.5" style="stroke:#181818;stroke-width:0.5;" width="87" x="540.5" y="365.2105"/><text fill="#000000" font-family="sans-serif" font-size="11" lengthAdjust="spacing" textLength="67" x="550.5" y="386.9695">Deep &#36755;&#20837;&#23618;]</text><rect fill="#FFFFFF" height="49.9638" rx="12.5" ry="12.5" style="stroke:#181818;stroke-width:0.5;" width="108" x="530" y="435.1924"/><text fill="#000000" font-family="sans-serif" font-size="11" lengthAdjust="spacing" textLength="42" x="540" y="456.9513">&#38544;&#34255;&#23618; 1</text><text fill="#000000" font-family="sans-serif" font-size="11" lengthAdjust="spacing" textLength="88" x="540" y="471.9332">ReLU + Dropout]</text><rect fill="#FFFFFF" height="49.9638" rx="12.5" ry="12.5" style="stroke:#181818;stroke-width:0.5;" width="108" x="530" y="520.1562"/><text fill="#000000" font-family="sans-serif" font-size="11" lengthAdjust="spacing" textLength="42" x="540" y="541.9151">&#38544;&#34255;&#23618; 2</text><text fill="#000000" font-family="sans-serif" font-size="11" lengthAdjust="spacing" textLength="88" x="540" y="556.897">ReLU + Dropout]</text><path d="M658,605.12 L658,632.679 L638,636.679 L658,640.679 L658,668.238 A0,0 0 0 0 658,668.238 L770,668.238 A0,0 0 0 0 770,668.238 L770,615.12 L760,605.12 L658,605.12 A0,0 0 0 0 658,605.12 " fill="#F08080" style="stroke:#181818;stroke-width:0.5;"/><path d="M760,605.12 L760,615.12 L770,615.12 L760,605.12 " fill="#F08080" style="stroke:#181818;stroke-width:0.5;"/><text fill="#000000" font-family="sans-serif" font-size="13" font-weight="bold" lengthAdjust="spacing" textLength="53.625" x="664" y="624.017">&#28145;&#24230;&#32593;&#32476;</text><text fill="#000000" font-family="sans-serif" font-size="13" lengthAdjust="spacing" textLength="91" x="664" y="641.723">&#23398;&#20064;&#39640;&#38454;&#38750;&#32447;&#24615;</text><text fill="#000000" font-family="sans-serif" font-size="13" lengthAdjust="spacing" textLength="52" x="664" y="659.429">&#29305;&#24449;&#20132;&#20114;</text><rect fill="#FFFFFF" height="49.9638" rx="12.5" ry="12.5" style="stroke:#181818;stroke-width:0.5;" width="108" x="530" y="611.6971"/><text fill="#000000" font-family="sans-serif" font-size="11" lengthAdjust="spacing" textLength="44" x="540" y="633.456">&#38544;&#34255;&#23618; N</text><text fill="#000000" font-family="sans-serif" font-size="11" lengthAdjust="spacing" textLength="88" x="540" y="648.4379">ReLU + Dropout]</text><rect fill="#FFFFFF" height="34.9819" rx="12.5" ry="12.5" style="stroke:#181818;stroke-width:0.5;" width="76" x="546" y="703.238"/><text fill="#000000" font-family="sans-serif" font-size="11" lengthAdjust="spacing" textLength="56" x="556" y="724.9969">Deep &#36755;&#20986;]</text><line style="stroke:#181818;stroke-width:1.5;" x1="249.5" x2="584" y1="758.2199" y2="758.2199"/><rect fill="#FFFFFF" height="34.9819" rx="12.5" ry="12.5" style="stroke:#181818;stroke-width:0.5;" width="57" x="355" y="778.2199"/><text fill="#000000" font-family="sans-serif" font-size="11" lengthAdjust="spacing" textLength="37" x="365" y="799.9788">&#32452;&#21512;&#23618;]</text><path d="M463,823.2018 L463,850.7608 L443,854.7608 L463,858.7608 L463,886.3199 A0,0 0 0 0 463,886.3199 L615,886.3199 A0,0 0 0 0 615,886.3199 L615,833.2018 L605,823.2018 L463,823.2018 A0,0 0 0 0 463,823.2018 " fill="#FFFFE0" style="stroke:#181818;stroke-width:0.5;"/><path d="M605,823.2018 L605,833.2018 L615,833.2018 L605,823.2018 " fill="#FFFFE0" style="stroke:#181818;stroke-width:0.5;"/><text fill="#000000" font-family="sans-serif" font-size="13" font-weight="bold" lengthAdjust="spacing" textLength="53.625" x="469" y="842.0988">&#32452;&#21512;&#31574;&#30053;</text><text fill="#000000" font-family="sans-serif" font-size="13" lengthAdjust="spacing" textLength="131" x="469" y="859.8048">&#20302;&#38454;(FM) + &#39640;&#38454;(Deep)</text><text fill="#000000" font-family="sans-serif" font-size="13" lengthAdjust="spacing" textLength="91" x="469" y="877.5109">&#31471;&#21040;&#31471;&#32852;&#21512;&#35757;&#32451;</text><rect fill="#FFFFFF" height="34.9819" rx="12.5" ry="12.5" style="stroke:#181818;stroke-width:0.5;" width="119" x="324" y="837.2699"/><text fill="#000000" font-family="sans-serif" font-size="11" lengthAdjust="spacing" textLength="99" x="334" y="859.0288">y = y_FM + y_Deep]</text><rect fill="#FFFFFF" height="34.9819" rx="12.5" ry="12.5" style="stroke:#181818;stroke-width:0.5;" width="103" x="332" y="906.3199"/><text fill="#000000" font-family="sans-serif" font-size="11" lengthAdjust="spacing" textLength="83" x="342" y="928.0788">&#36755;&#20986;&#23618; Sigmoid]</text><rect fill="#FFFFFF" height="34.9819" rx="12.5" ry="12.5" style="stroke:#181818;stroke-width:0.5;" width="80" x="343.5" y="961.3017"/><text fill="#000000" font-family="sans-serif" font-size="11" lengthAdjust="spacing" textLength="60" x="353.5" y="983.0607">CTR &#39044;&#20272;&#20540;]</text><ellipse cx="383.5" cy="1027.2836" fill="none" rx="11" ry="11" style="stroke:#222222;stroke-width:1.0;"/><ellipse cx="383.5" cy="1027.2836" fill="#222222" rx="6" ry="6" style="stroke:#222222;stroke-width:1.0;"/><line style="stroke:#181818;stroke-width:1.0;" x1="383.5" x2="383.5" y1="70.0679" y2="90.0679"/><polygon fill="#181818" points="379.5,80.0679,383.5,90.0679,387.5,80.0679,383.5,84.0679" style="stroke:#181818;stroke-width:1.0;"/><line style="stroke:#181818;stroke-width:1.0;" x1="383.5" x2="383.5" y1="125.0498" y2="150.2649"/><polygon fill="#181818" points="379.5,140.2649,383.5,150.2649,387.5,140.2649,383.5,144.2649" style="stroke:#181818;stroke-width:1.0;"/><line style="stroke:#181818;stroke-width:1.0;" x1="249.5" x2="249.5" y1="288.7015" y2="323.7015"/><polygon fill="#181818" points="245.5,313.7015,249.5,323.7015,253.5,313.7015,249.5,317.7015" style="stroke:#181818;stroke-width:1.0;"/><line style="stroke:#181818;stroke-width:1.0;" x1="249.5" x2="249.5" y1="358.6834" y2="393.6834"/><polygon fill="#181818" points="245.5,383.6834,249.5,393.6834,253.5,383.6834,249.5,387.6834" style="stroke:#181818;stroke-width:1.0;"/><line style="stroke:#181818;stroke-width:1.0;" x1="54" x2="54" y1="520.1471" y2="569.2152"/><polygon fill="#181818" points="50,559.2152,54,569.2152,58,559.2152,54,563.2152" style="stroke:#181818;stroke-width:1.0;"/><line style="stroke:#181818;stroke-width:1.0;" x1="300" x2="300" y1="520.1471" y2="569.2152"/><polygon fill="#181818" points="296,559.2152,300,569.2152,304,559.2152,300,563.2152" style="stroke:#181818;stroke-width:1.0;"/><line style="stroke:#181818;stroke-width:1.0;" x1="54" x2="54" y1="465.1653" y2="485.1653"/><polygon fill="#181818" points="50,475.1653,54,485.1653,58,475.1653,54,479.1653" style="stroke:#181818;stroke-width:1.0;"/><line style="stroke:#181818;stroke-width:1.0;" x1="300" x2="300" y1="465.1653" y2="485.1653"/><polygon fill="#181818" points="296,475.1653,300,485.1653,304,475.1653,300,479.1653" style="stroke:#181818;stroke-width:1.0;"/><line style="stroke:#181818;stroke-width:1.0;" x1="54" x2="54" y1="604.1971" y2="638.2652"/><polygon fill="#181818" points="50,628.2652,54,638.2652,58,628.2652,54,632.2652" style="stroke:#181818;stroke-width:1.0;"/><line style="stroke:#181818;stroke-width:1.0;" x1="300" x2="300" y1="604.1971" y2="638.2652"/><polygon fill="#181818" points="296,628.2652,300,638.2652,304,628.2652,300,632.2652" style="stroke:#181818;stroke-width:1.0;"/><line style="stroke:#181818;stroke-width:1.0;" x1="249.5" x2="249.5" y1="428.6653" y2="463.6653"/><polygon fill="#181818" points="245.5,453.6653,249.5,463.6653,253.5,453.6653,249.5,457.6653" style="stroke:#181818;stroke-width:1.0;"/><line style="stroke:#181818;stroke-width:1.0;" x1="249.5" x2="249.5" y1="639.7652" y2="674.7652"/><polygon fill="#181818" points="245.5,664.7652,249.5,674.7652,253.5,664.7652,249.5,668.7652" style="stroke:#181818;stroke-width:1.0;"/><line style="stroke:#181818;stroke-width:1.0;" x1="584" x2="584" y1="260.2287" y2="295.2287"/><polygon fill="#181818" points="580,285.2287,584,295.2287,588,285.2287,584,289.2287" style="stroke:#181818;stroke-width:1.0;"/><line style="stroke:#181818;stroke-width:1.0;" x1="584" x2="584" y1="330.2105" y2="365.2105"/><polygon fill="#181818" points="580,355.2105,584,365.2105,588,355.2105,584,359.2105" style="stroke:#181818;stroke-width:1.0;"/><line style="stroke:#181818;stroke-width:1.0;" x1="584" x2="584" y1="400.1924" y2="435.1924"/><polygon fill="#181818" points="580,425.1924,584,435.1924,588,425.1924,584,429.1924" style="stroke:#181818;stroke-width:1.0;"/><line style="stroke:#181818;stroke-width:1.0;" x1="584" x2="584" y1="485.1562" y2="520.1562"/><polygon fill="#181818" points="580,510.1562,584,520.1562,588,510.1562,584,514.1562" style="stroke:#181818;stroke-width:1.0;"/><line style="stroke:#181818;stroke-width:1.0;" x1="584" x2="584" y1="570.12" y2="611.6971"/><polygon fill="#181818" points="580,601.6971,584,611.6971,588,601.6971,584,605.6971" style="stroke:#181818;stroke-width:1.0;"/><line style="stroke:#181818;stroke-width:1.0;" x1="584" x2="584" y1="661.6609" y2="703.238"/><polygon fill="#181818" points="580,693.238,584,703.238,588,693.238,584,697.238" style="stroke:#181818;stroke-width:1.0;"/><line style="stroke:#181818;stroke-width:1.0;" x1="249.5" x2="249.5" y1="206.7468" y2="253.7196"/><polygon fill="#181818" points="245.5,243.7196,249.5,253.7196,253.5,243.7196,249.5,247.7196" style="stroke:#181818;stroke-width:1.0;"/><line style="stroke:#181818;stroke-width:1.0;" x1="584" x2="584" y1="206.7468" y2="225.2468"/><polygon fill="#181818" points="580,215.2468,584,225.2468,588,215.2468,584,219.2468" style="stroke:#181818;stroke-width:1.0;"/><line style="stroke:#181818;stroke-width:1.0;" x1="249.5" x2="249.5" y1="709.7471" y2="758.2199"/><polygon fill="#181818" points="245.5,748.2199,249.5,758.2199,253.5,748.2199,249.5,752.2199" style="stroke:#181818;stroke-width:1.0;"/><line style="stroke:#181818;stroke-width:1.0;" x1="584" x2="584" y1="738.2199" y2="758.2199"/><polygon fill="#181818" points="580,748.2199,584,758.2199,588,748.2199,584,752.2199" style="stroke:#181818;stroke-width:1.0;"/><line style="stroke:#181818;stroke-width:1.0;" x1="383.5" x2="383.5" y1="185.2468" y2="205.2468"/><polygon fill="#181818" points="379.5,195.2468,383.5,205.2468,387.5,195.2468,383.5,199.2468" style="stroke:#181818;stroke-width:1.0;"/><line style="stroke:#181818;stroke-width:1.0;" x1="383.5" x2="383.5" y1="759.7199" y2="778.2199"/><polygon fill="#181818" points="379.5,768.2199,383.5,778.2199,387.5,768.2199,383.5,772.2199" style="stroke:#181818;stroke-width:1.0;"/><line style="stroke:#181818;stroke-width:1.0;" x1="383.5" x2="383.5" y1="813.2018" y2="837.2699"/><polygon fill="#181818" points="379.5,827.2699,383.5,837.2699,387.5,827.2699,383.5,831.2699" style="stroke:#181818;stroke-width:1.0;"/><line style="stroke:#181818;stroke-width:1.0;" x1="383.5" x2="383.5" y1="872.2518" y2="906.3199"/><polygon fill="#181818" points="379.5,896.3199,383.5,906.3199,387.5,896.3199,383.5,900.3199" style="stroke:#181818;stroke-width:1.0;"/><line style="stroke:#181818;stroke-width:1.0;" x1="383.5" x2="383.5" y1="941.3017" y2="961.3017"/><polygon fill="#181818" points="379.5,951.3017,383.5,961.3017,387.5,951.3017,383.5,955.3017" style="stroke:#181818;stroke-width:1.0;"/><line style="stroke:#181818;stroke-width:1.0;" x1="383.5" x2="383.5" y1="996.2836" y2="1016.2836"/><polygon fill="#181818" points="379.5,1006.2836,383.5,1016.2836,387.5,1006.2836,383.5,1010.2836" style="stroke:#181818;stroke-width:1.0;"/><rect fill="#DDDDDD" height="204.6792" id="_legend" rx="7.5" ry="7.5" style="stroke:#000000;stroke-width:1.0;" width="199" x="558" y="1049.2836"/><text fill="#000000" font-family="sans-serif" font-size="14" lengthAdjust="spacing" textLength="73" x="563" y="1071.2496">#LightBlue</text><text fill="#000000" font-family="sans-serif" font-size="14" lengthAdjust="spacing" textLength="84" x="653" y="1071.2496">&#36755;&#20837;&#19982;&#39044;&#22788;&#29702;</text><text fill="#000000" font-family="sans-serif" font-size="14" lengthAdjust="spacing" textLength="84" x="563" y="1090.3175">#LightGreen</text><text fill="#000000" font-family="sans-serif" font-size="14" lengthAdjust="spacing" textLength="80" x="653" y="1090.3175">FM &#32452;&#20214;&#36335;&#24452;</text><text fill="#000000" font-family="sans-serif" font-size="14" lengthAdjust="spacing" textLength="78" x="563" y="1109.3854">#LightCoral</text><text fill="#000000" font-family="sans-serif" font-size="14" lengthAdjust="spacing" textLength="95" x="653" y="1109.3854">Deep &#32452;&#20214;&#36335;&#24452;</text><text fill="#000000" font-family="sans-serif" font-size="14" lengthAdjust="spacing" textLength="86" x="563" y="1128.4533">#LightYellow</text><text fill="#000000" font-family="sans-serif" font-size="14" lengthAdjust="spacing" textLength="70" x="653" y="1128.4533">&#32452;&#21512;&#19982;&#36755;&#20986;</text><line style="stroke:#000000;stroke-width:1.0;" x1="563" x2="752" y1="1056.2836" y2="1056.2836"/><line style="stroke:#000000;stroke-width:1.0;" x1="563" x2="752" y1="1075.3515" y2="1075.3515"/><line style="stroke:#000000;stroke-width:1.0;" x1="563" x2="752" y1="1094.4195" y2="1094.4195"/><line style="stroke:#000000;stroke-width:1.0;" x1="563" x2="752" y1="1113.4874" y2="1113.4874"/><line style="stroke:#000000;stroke-width:1.0;" x1="563" x2="752" y1="1132.5553" y2="1132.5553"/><line style="stroke:#000000;stroke-width:1.0;" x1="563" x2="563" y1="1056.2836" y2="1132.5553"/><line style="stroke:#000000;stroke-width:1.0;" x1="649" x2="649" y1="1056.2836" y2="1132.5553"/><line style="stroke:#000000;stroke-width:1.0;" x1="752" x2="752" y1="1056.2836" y2="1132.5553"/><text fill="#000000" font-family="sans-serif" font-size="14" lengthAdjust="spacing" textLength="4" x="563" y="1149.5212">&#160;</text><text fill="#000000" font-family="sans-serif" font-size="14" font-weight="bold" lengthAdjust="spacing" textLength="57.75" x="563" y="1168.5891">&#20851;&#38190;&#20248;&#21183;</text><text fill="#000000" font-family="sans-serif" font-size="14" lengthAdjust="spacing" textLength="149" x="563" y="1187.6571">- FM: &#25429;&#25417;&#20302;&#38454;&#29305;&#24449;&#20132;&#20114;</text><text fill="#000000" font-family="sans-serif" font-size="14" lengthAdjust="spacing" textLength="164" x="563" y="1206.725">- Deep: &#23398;&#20064;&#39640;&#38454;&#22797;&#26434;&#27169;&#24335;</text><text fill="#000000" font-family="sans-serif" font-size="14" lengthAdjust="spacing" textLength="129" x="563" y="1225.7929">- &#20849;&#20139;&#23884;&#20837;: &#21442;&#25968;&#39640;&#25928;</text><text fill="#000000" font-family="sans-serif" font-size="14" lengthAdjust="spacing" textLength="115" x="563" y="1244.8608">- &#31471;&#21040;&#31471;: &#32852;&#21512;&#20248;&#21270;</text><text fill="#000000" font-family="sans-serif" font-size="14" lengthAdjust="spacing" textLength="272" x="253.5" y="1282.9287">&#23637;&#31034;&#20174;&#36755;&#20837;&#21040; CTR &#39044;&#20272;&#30340;&#23436;&#25972;&#25968;&#25454;&#27969;&#21160;&#36807;&#31243;</text><!--SRC=[bLHRJnf157xVNp59NpJ6DFPnQtrGOsEYVT0sJPEQPjKDRiHTWciRMveWee22e1KrNYesOeb6b1GlB8W_fZipxB_esPa5rgf9omExE-Sxb-yxPuwkw5uPzSgohsyGuLW2frRDIeQidPABEPfRnZjLOKpowOgc8bn8qqF3BA_Kgj_mGXP7pr7Fwo5a_GYRbNEw7SRvE4aNIVgS9FBWZPTojTi8n124wKb5zKb-QGf9OxhoKT5dqHS1mQzR6flq-BKPTRn7ysf-z7P2qMLcwTDKVLZvBAEE3k4hHD0blou88a_DSpmN15NJPUHNF1CwE7METj5Sa6uaQQo4gtETJqUxH4JNSoHwrT_xEpY7IxTuTQc_jmxDuBD5DnINYbOr342oUMbj5WLP7KTs0aZBOS0K7uPfQX4oJ_kyYiug5Tr9mSBEy4NSbgWG8ljP4glMZ-dwFecc76DgrOea7Kip7CD1BypheBLrQHsK70JtDsv9y2TUof2zUL88uRMuozeK0pqPi1yl_RAiDioCDOzg6eUciMQpTbb98aqICPn8czV7d0pqr6MdEqMoagqL3sWytpXkQjHWWIIFfAXtkHZn1xYm75m5A0WdO__BXKLza4ijSWpZXq-Fp5B6uL8EurJKJNSpO-q6JSF0Lrcd57Y1QNsOclt5coJKMTcp6356wiFWuYswXwlHU_P5bYkWOltCldV8kKw5q4ZzsDfErJQJS88wtgj3yi0Rr8Pw_PfFcz4Vm3px1yohnp3tXExH_99NQ8XChWhOEA8tgxIywnAPIskTRDbztVlEvzAnSQAyBy9z9PkacNWkOKNU94S9SHQzGBCVGEWsUDXE8tTkl5FlEzdhrJuvTvhvqzCDciuwnPetAr1YIzzWAuJXzRROiLh1Ha_EO8d1Vsrk7Vng-LDQddTVUrwahT-mufdIb75MLtFfuM25jL_NV8BWbJssQtqR1NXvtTuPEU2qsBnUQQmG56XYs6m743050cRvidPrXgjXDu8r9S3MzACOBaG0SH4W5wyU85mSlF3BMi-RbIsyTEk8qmuvHUVYSw7-wbqxIodUQJS-J92z4CaTu4gIGV12mJHE-583Q384wncW91rbveRA8k8wsoN4DsoTkMJ27m00]--></g></svg>