<?xml version="1.0" encoding="us-ascii" standalone="no"?><svg xmlns="http://www.w3.org/2000/svg" xmlns:xlink="http://www.w3.org/1999/xlink" contentStyleType="text/css" height="1258px" preserveAspectRatio="none" style="width:834px;height:1258px;background:#FFFFFF;" version="1.1" viewBox="0 0 834 1258" width="834px" zoomAndPan="magnify"><defs/><g><text fill="#000000" font-family="sans-serif" font-size="14" font-weight="bold" lengthAdjust="spacing" textLength="132.1875" x="344.1563" y="24.9659">DeepFM &#27169;&#22411;&#26550;&#26500;&#22270;</text><!--cluster ???--><g id="cluster_&#36755;&#20837;&#23618;"><path d="M238.5,46.6699 L282.8125,46.6699 A3.75,3.75 0 0 1 285.3125,49.1699 L292.3125,71.7378 L578.5,71.7378 A2.5,2.5 0 0 1 581,74.2378 L581,161.1699 A2.5,2.5 0 0 1 578.5,163.6699 L238.5,163.6699 A2.5,2.5 0 0 1 236,161.1699 L236,49.1699 A2.5,2.5 0 0 1 238.5,46.6699 " fill="none" style="stroke:#000000;stroke-width:1.5;"/><line style="stroke:#000000;stroke-width:1.5;" x1="236" x2="292.3125" y1="71.7378" y2="71.7378"/><text fill="#000000" font-family="sans-serif" font-size="14" font-weight="bold" lengthAdjust="spacing" textLength="43.3125" x="240" y="63.6358">&#36755;&#20837;&#23618;</text></g><!--cluster ???--><g id="cluster_&#23884;&#20837;&#23618;"><path d="M8.5,187.6699 L52.8125,187.6699 A3.75,3.75 0 0 1 55.3125,190.1699 L62.3125,212.7378 L522.5,212.7378 A2.5,2.5 0 0 1 525,215.2378 L525,391.1699 A2.5,2.5 0 0 1 522.5,393.6699 L8.5,393.6699 A2.5,2.5 0 0 1 6,391.1699 L6,190.1699 A2.5,2.5 0 0 1 8.5,187.6699 " fill="#FFFFE0" style="stroke:#000000;stroke-width:1.5;"/><line style="stroke:#000000;stroke-width:1.5;" x1="6" x2="62.3125" y1="212.7378" y2="212.7378"/><text fill="#000000" font-family="sans-serif" font-size="14" font-weight="bold" lengthAdjust="spacing" textLength="43.3125" x="10" y="204.6358">&#23884;&#20837;&#23618;</text></g><!--cluster FM??--><g id="cluster_FM&#32452;&#20214;"><path d="M271.5,778.6699 L322.375,778.6699 A3.75,3.75 0 0 1 324.875,781.1699 L331.875,803.7378 L518.5,803.7378 A2.5,2.5 0 0 1 521,806.2378 L521,893.1699 A2.5,2.5 0 0 1 518.5,895.6699 L271.5,895.6699 A2.5,2.5 0 0 1 269,893.1699 L269,781.1699 A2.5,2.5 0 0 1 271.5,778.6699 " fill="#90EE90" style="stroke:#000000;stroke-width:1.5;"/><line style="stroke:#000000;stroke-width:1.5;" x1="269" x2="331.875" y1="803.7378" y2="803.7378"/><text fill="#000000" font-family="sans-serif" font-size="14" font-weight="bold" lengthAdjust="spacing" textLength="49.875" x="273" y="795.6358">FM&#32452;&#20214;</text></g><!--cluster Deep??--><g id="cluster_Deep&#32452;&#20214;"><path d="M93.5,417.6699 L158.375,417.6699 A3.75,3.75 0 0 1 160.875,420.1699 L167.875,442.7378 L242.5,442.7378 A2.5,2.5 0 0 1 245,445.2378 L245,893.1699 A2.5,2.5 0 0 1 242.5,895.6699 L93.5,895.6699 A2.5,2.5 0 0 1 91,893.1699 L91,420.1699 A2.5,2.5 0 0 1 93.5,417.6699 " fill="#F08080" style="stroke:#000000;stroke-width:1.5;"/><line style="stroke:#000000;stroke-width:1.5;" x1="91" x2="167.875" y1="442.7378" y2="442.7378"/><text fill="#000000" font-family="sans-serif" font-size="14" font-weight="bold" lengthAdjust="spacing" textLength="63.875" x="95" y="434.6358">Deep&#32452;&#20214;</text></g><!--entity sparse--><g id="elem_sparse"><rect fill="#ADD8E6" height="62.6882" rx="2.5" ry="2.5" style="stroke:#333333;stroke-width:0.5;" width="159" x="251.5" y="84.6699"/><rect fill="#ADD8E6" height="10" style="stroke:#333333;stroke-width:0.5;" width="15" x="390.5" y="89.6699"/><rect fill="#ADD8E6" height="2" style="stroke:#333333;stroke-width:0.5;" width="4" x="388.5" y="91.6699"/><rect fill="#ADD8E6" height="2" style="stroke:#333333;stroke-width:0.5;" width="4" x="388.5" y="95.6699"/><text fill="#000000" font-family="sans-serif" font-size="12" lengthAdjust="spacing" textLength="48" x="266.5" y="117.498">&#31232;&#30095;&#29305;&#24449;</text><text fill="#000000" font-family="sans-serif" font-size="12" lengthAdjust="spacing" textLength="119" x="266.5" y="133.8421">&#29992;&#25143;ID/&#24191;&#21578;ID/&#34892;&#19994;ID</text></g><!--entity dense--><g id="elem_dense"><rect fill="#ADD8E6" height="62.6882" rx="2.5" ry="2.5" style="stroke:#333333;stroke-width:0.5;" width="120" x="445" y="84.6699"/><rect fill="#ADD8E6" height="10" style="stroke:#333333;stroke-width:0.5;" width="15" x="545" y="89.6699"/><rect fill="#ADD8E6" height="2" style="stroke:#333333;stroke-width:0.5;" width="4" x="543" y="91.6699"/><rect fill="#ADD8E6" height="2" style="stroke:#333333;stroke-width:0.5;" width="4" x="543" y="95.6699"/><text fill="#000000" font-family="sans-serif" font-size="12" lengthAdjust="spacing" textLength="48" x="460" y="117.498">&#31264;&#23494;&#29305;&#24449;</text><text fill="#000000" font-family="sans-serif" font-size="12" lengthAdjust="spacing" textLength="80" x="460" y="133.8421">&#24180;&#40836;/&#26102;&#38388;/&#20986;&#20215;</text></g><!--entity emb1--><g id="elem_emb1"><rect fill="#FFFFFF" height="46.3441" rx="2.5" ry="2.5" style="stroke:#333333;stroke-width:0.5;" width="95" x="413.5" y="225.6699"/><rect fill="#FFFFFF" height="10" style="stroke:#333333;stroke-width:0.5;" width="15" x="488.5" y="230.6699"/><rect fill="#FFFFFF" height="2" style="stroke:#333333;stroke-width:0.5;" width="4" x="486.5" y="232.6699"/><rect fill="#FFFFFF" height="2" style="stroke:#333333;stroke-width:0.5;" width="4" x="486.5" y="236.6699"/><text fill="#000000" font-family="sans-serif" font-size="12" lengthAdjust="spacing" textLength="55" x="428.5" y="258.498">&#23884;&#20837;&#21521;&#37327;1</text></g><!--entity emb2--><g id="elem_emb2"><rect fill="#FFFFFF" height="46.3441" rx="2.5" ry="2.5" style="stroke:#333333;stroke-width:0.5;" width="95" x="283.5" y="225.6699"/><rect fill="#FFFFFF" height="10" style="stroke:#333333;stroke-width:0.5;" width="15" x="358.5" y="230.6699"/><rect fill="#FFFFFF" height="2" style="stroke:#333333;stroke-width:0.5;" width="4" x="356.5" y="232.6699"/><rect fill="#FFFFFF" height="2" style="stroke:#333333;stroke-width:0.5;" width="4" x="356.5" y="236.6699"/><text fill="#000000" font-family="sans-serif" font-size="12" lengthAdjust="spacing" textLength="55" x="298.5" y="258.498">&#23884;&#20837;&#21521;&#37327;2</text></g><!--entity emb3--><g id="elem_emb3"><rect fill="#FFFFFF" height="46.3441" rx="2.5" ry="2.5" style="stroke:#333333;stroke-width:0.5;" width="95" x="153.5" y="225.6699"/><rect fill="#FFFFFF" height="10" style="stroke:#333333;stroke-width:0.5;" width="15" x="228.5" y="230.6699"/><rect fill="#FFFFFF" height="2" style="stroke:#333333;stroke-width:0.5;" width="4" x="226.5" y="232.6699"/><rect fill="#FFFFFF" height="2" style="stroke:#333333;stroke-width:0.5;" width="4" x="226.5" y="236.6699"/><text fill="#000000" font-family="sans-serif" font-size="12" lengthAdjust="spacing" textLength="55" x="168.5" y="258.498">&#23884;&#20837;&#21521;&#37327;3</text></g><!--entity embN--><g id="elem_embN"><rect fill="#FFFFFF" height="46.3441" rx="2.5" ry="2.5" style="stroke:#333333;stroke-width:0.5;" width="97" x="21.5" y="225.6699"/><rect fill="#FFFFFF" height="10" style="stroke:#333333;stroke-width:0.5;" width="15" x="98.5" y="230.6699"/><rect fill="#FFFFFF" height="2" style="stroke:#333333;stroke-width:0.5;" width="4" x="96.5" y="232.6699"/><rect fill="#FFFFFF" height="2" style="stroke:#333333;stroke-width:0.5;" width="4" x="96.5" y="236.6699"/><text fill="#000000" font-family="sans-serif" font-size="12" lengthAdjust="spacing" textLength="57" x="36.5" y="258.498">&#23884;&#20837;&#21521;&#37327;N</text></g><!--entity embedding_matrix--><g id="elem_embedding_matrix"><rect fill="#E6E6FA" height="46.3441" rx="2.5" ry="2.5" style="stroke:#333333;stroke-width:0.5;" width="88" x="287" y="331.6699"/><rect fill="#E6E6FA" height="10" style="stroke:#333333;stroke-width:0.5;" width="15" x="355" y="336.6699"/><rect fill="#E6E6FA" height="2" style="stroke:#333333;stroke-width:0.5;" width="4" x="353" y="338.6699"/><rect fill="#E6E6FA" height="2" style="stroke:#333333;stroke-width:0.5;" width="4" x="353" y="342.6699"/><text fill="#000000" font-family="sans-serif" font-size="12" lengthAdjust="spacing" textLength="48" x="302" y="364.498">&#23884;&#20837;&#30697;&#38453;</text></g><!--entity fm_first--><g id="elem_fm_first"><rect fill="#FFFFFF" height="62.6882" rx="2.5" ry="2.5" style="stroke:#333333;stroke-width:0.5;" width="93" x="412.5" y="816.6699"/><rect fill="#FFFFFF" height="10" style="stroke:#333333;stroke-width:0.5;" width="15" x="485.5" y="821.6699"/><rect fill="#FFFFFF" height="2" style="stroke:#333333;stroke-width:0.5;" width="4" x="483.5" y="823.6699"/><rect fill="#FFFFFF" height="2" style="stroke:#333333;stroke-width:0.5;" width="4" x="483.5" y="827.6699"/><text fill="#000000" font-family="sans-serif" font-size="12" lengthAdjust="spacing" textLength="53" x="427.5" y="849.498">FM&#19968;&#38454;&#39033;</text><text fill="#000000" font-family="sans-serif" font-size="12" lengthAdjust="spacing" textLength="48" x="427.5" y="865.8421">&#32447;&#24615;&#37096;&#20998;</text></g><!--entity fm_second--><g id="elem_fm_second"><rect fill="#FFFFFF" height="62.6882" rx="2.5" ry="2.5" style="stroke:#333333;stroke-width:0.5;" width="93" x="284.5" y="816.6699"/><rect fill="#FFFFFF" height="10" style="stroke:#333333;stroke-width:0.5;" width="15" x="357.5" y="821.6699"/><rect fill="#FFFFFF" height="2" style="stroke:#333333;stroke-width:0.5;" width="4" x="355.5" y="823.6699"/><rect fill="#FFFFFF" height="2" style="stroke:#333333;stroke-width:0.5;" width="4" x="355.5" y="827.6699"/><text fill="#000000" font-family="sans-serif" font-size="12" lengthAdjust="spacing" textLength="53" x="299.5" y="849.498">FM&#20108;&#38454;&#39033;</text><text fill="#000000" font-family="sans-serif" font-size="12" lengthAdjust="spacing" textLength="48" x="299.5" y="865.8421">&#29305;&#24449;&#20132;&#21449;</text></g><!--entity deep_input--><g id="elem_deep_input"><rect fill="#FFFFFF" height="46.3441" rx="2.5" ry="2.5" style="stroke:#333333;stroke-width:0.5;" width="76" x="141" y="455.6699"/><rect fill="#FFFFFF" height="10" style="stroke:#333333;stroke-width:0.5;" width="15" x="197" y="460.6699"/><rect fill="#FFFFFF" height="2" style="stroke:#333333;stroke-width:0.5;" width="4" x="195" y="462.6699"/><rect fill="#FFFFFF" height="2" style="stroke:#333333;stroke-width:0.5;" width="4" x="195" y="466.6699"/><text fill="#000000" font-family="sans-serif" font-size="12" lengthAdjust="spacing" textLength="36" x="156" y="488.498">&#36755;&#20837;&#23618;</text></g><!--entity hidden1--><g id="elem_hidden1"><rect fill="#FFFFFF" height="62.6882" rx="2.5" ry="2.5" style="stroke:#333333;stroke-width:0.5;" width="122" x="107" y="561.6699"/><rect fill="#FFFFFF" height="10" style="stroke:#333333;stroke-width:0.5;" width="15" x="209" y="566.6699"/><rect fill="#FFFFFF" height="2" style="stroke:#333333;stroke-width:0.5;" width="4" x="207" y="568.6699"/><rect fill="#FFFFFF" height="2" style="stroke:#333333;stroke-width:0.5;" width="4" x="207" y="572.6699"/><text fill="#000000" font-family="sans-serif" font-size="12" lengthAdjust="spacing" textLength="43" x="122" y="594.498">&#38544;&#34255;&#23618;1</text><text fill="#000000" font-family="sans-serif" font-size="12" lengthAdjust="spacing" textLength="82" x="122" y="610.8421">ReLU+Dropout</text></g><!--entity hidden2--><g id="elem_hidden2"><rect fill="#FFFFFF" height="62.6882" rx="2.5" ry="2.5" style="stroke:#333333;stroke-width:0.5;" width="122" x="107" y="684.6699"/><rect fill="#FFFFFF" height="10" style="stroke:#333333;stroke-width:0.5;" width="15" x="209" y="689.6699"/><rect fill="#FFFFFF" height="2" style="stroke:#333333;stroke-width:0.5;" width="4" x="207" y="691.6699"/><rect fill="#FFFFFF" height="2" style="stroke:#333333;stroke-width:0.5;" width="4" x="207" y="695.6699"/><text fill="#000000" font-family="sans-serif" font-size="12" lengthAdjust="spacing" textLength="43" x="122" y="717.498">&#38544;&#34255;&#23618;2</text><text fill="#000000" font-family="sans-serif" font-size="12" lengthAdjust="spacing" textLength="82" x="122" y="733.8421">ReLU+Dropout</text></g><!--entity hiddenN--><g id="elem_hiddenN"><rect fill="#FFFFFF" height="62.6882" rx="2.5" ry="2.5" style="stroke:#333333;stroke-width:0.5;" width="122" x="107" y="816.6699"/><rect fill="#FFFFFF" height="10" style="stroke:#333333;stroke-width:0.5;" width="15" x="209" y="821.6699"/><rect fill="#FFFFFF" height="2" style="stroke:#333333;stroke-width:0.5;" width="4" x="207" y="823.6699"/><rect fill="#FFFFFF" height="2" style="stroke:#333333;stroke-width:0.5;" width="4" x="207" y="827.6699"/><text fill="#000000" font-family="sans-serif" font-size="12" lengthAdjust="spacing" textLength="45" x="122" y="849.498">&#38544;&#34255;&#23618;N</text><text fill="#000000" font-family="sans-serif" font-size="12" lengthAdjust="spacing" textLength="82" x="122" y="865.8421">ReLU+Dropout</text></g><!--entity concat--><g id="elem_concat"><rect fill="#FFFFE0" height="46.3441" rx="2.5" ry="2.5" style="stroke:#333333;stroke-width:0.5;" width="76" x="293" y="948.6699"/><rect fill="#FFFFE0" height="10" style="stroke:#333333;stroke-width:0.5;" width="15" x="349" y="953.6699"/><rect fill="#FFFFE0" height="2" style="stroke:#333333;stroke-width:0.5;" width="4" x="347" y="955.6699"/><rect fill="#FFFFE0" height="2" style="stroke:#333333;stroke-width:0.5;" width="4" x="347" y="959.6699"/><text fill="#000000" font-family="sans-serif" font-size="12" lengthAdjust="spacing" textLength="36" x="308" y="981.498">&#32452;&#21512;&#23618;</text></g><!--entity output--><g id="elem_output"><rect fill="#ADD8E6" height="62.6882" rx="2.5" ry="2.5" style="stroke:#333333;stroke-width:0.5;" width="85" x="214.5" y="1054.6699"/><rect fill="#ADD8E6" height="10" style="stroke:#333333;stroke-width:0.5;" width="15" x="279.5" y="1059.6699"/><rect fill="#ADD8E6" height="2" style="stroke:#333333;stroke-width:0.5;" width="4" x="277.5" y="1061.6699"/><rect fill="#ADD8E6" height="2" style="stroke:#333333;stroke-width:0.5;" width="4" x="277.5" y="1065.6699"/><text fill="#000000" font-family="sans-serif" font-size="12" lengthAdjust="spacing" textLength="36" x="229.5" y="1087.498">&#36755;&#20986;&#23618;</text><text fill="#000000" font-family="sans-serif" font-size="12" lengthAdjust="spacing" textLength="45" x="229.5" y="1103.8421">Sigmoid</text></g><!--entity ctr_result--><g id="elem_ctr_result"><rect fill="#E6E6FA" height="46.3441" rx="2.5" ry="2.5" style="stroke:#333333;stroke-width:0.5;" width="98" x="208" y="1177.6699"/><rect fill="#E6E6FA" height="10" style="stroke:#333333;stroke-width:0.5;" width="15" x="286" y="1182.6699"/><rect fill="#E6E6FA" height="2" style="stroke:#333333;stroke-width:0.5;" width="4" x="284" y="1184.6699"/><rect fill="#E6E6FA" height="2" style="stroke:#333333;stroke-width:0.5;" width="4" x="284" y="1188.6699"/><text fill="#000000" font-family="sans-serif" font-size="12" lengthAdjust="spacing" textLength="58" x="223" y="1210.498">CTR&#39044;&#20272;&#20540;</text></g><g id="elem_GMN42"><path d="M541,807.6699 L541,888.494 L673,888.494 L673,817.6699 L663,807.6699 L541,807.6699 " fill="#FEFFDD" style="stroke:#181818;stroke-width:0.5;"/><path d="M663,807.6699 L663,817.6699 L673,817.6699 L663,807.6699 " fill="#FEFFDD" style="stroke:#181818;stroke-width:1.0;"/><text fill="#000000" font-family="sans-serif" font-size="13" font-weight="bold" lengthAdjust="spacing" textLength="80.4375" x="547" y="826.5669">&#29305;&#24449;&#20132;&#21449;&#26426;&#21046;</text><text fill="#000000" font-family="sans-serif" font-size="13" lengthAdjust="spacing" textLength="111" x="547" y="844.2729">- &#20108;&#38454;&#20132;&#20114;&#33258;&#21160;&#23398;&#20064;</text><text fill="#000000" font-family="sans-serif" font-size="13" lengthAdjust="spacing" textLength="111" x="547" y="861.9789">- &#26080;&#38656;&#20154;&#24037;&#29305;&#24449;&#24037;&#31243;</text><text fill="#000000" font-family="sans-serif" font-size="13" lengthAdjust="spacing" textLength="111" x="547" y="879.685">- &#25429;&#25417;&#20302;&#38454;&#29305;&#24449;&#32452;&#21512;</text></g><g id="elem_GMN45"><path d="M708.5,807.6699 L708.5,888.494 L827.5,888.494 L827.5,817.6699 L817.5,807.6699 L708.5,807.6699 " fill="#FEFFDD" style="stroke:#181818;stroke-width:0.5;"/><path d="M817.5,807.6699 L817.5,817.6699 L827.5,817.6699 L817.5,807.6699 " fill="#FEFFDD" style="stroke:#181818;stroke-width:1.0;"/><text fill="#000000" font-family="sans-serif" font-size="13" font-weight="bold" lengthAdjust="spacing" textLength="53.625" x="714.5" y="826.5669">&#28145;&#24230;&#32593;&#32476;</text><text fill="#000000" font-family="sans-serif" font-size="13" lengthAdjust="spacing" textLength="98" x="714.5" y="844.2729">- &#23398;&#20064;&#39640;&#38454;&#38750;&#32447;&#24615;</text><text fill="#000000" font-family="sans-serif" font-size="13" lengthAdjust="spacing" textLength="59" x="714.5" y="861.9789">- &#29305;&#24449;&#20132;&#20114;</text><text fill="#000000" font-family="sans-serif" font-size="13" lengthAdjust="spacing" textLength="85" x="714.5" y="879.685">- &#25429;&#25417;&#22797;&#26434;&#27169;&#24335;</text></g><g id="elem_GMN48"><path d="M335,1054.6699 L335,1117.7879 A0,0 0 0 0 335,1117.7879 L477,1117.7879 A0,0 0 0 0 477,1117.7879 L477,1064.6699 L467,1054.6699 L389.54,1054.6699 L345.82,994.8999 L381.54,1054.6699 L335,1054.6699 A0,0 0 0 0 335,1054.6699 " fill="#FEFFDD" style="stroke:#181818;stroke-width:0.5;"/><path d="M467,1054.6699 L467,1064.6699 L477,1064.6699 L467,1054.6699 " fill="#FEFFDD" style="stroke:#181818;stroke-width:0.5;"/><text fill="#000000" font-family="sans-serif" font-size="13" font-weight="bold" lengthAdjust="spacing" textLength="53.625" x="341" y="1073.5669">&#32452;&#21512;&#31574;&#30053;</text><text fill="#000000" font-family="sans-serif" font-size="13" lengthAdjust="spacing" textLength="121" x="341" y="1091.2729">FM &#36755;&#20986; + Deep &#36755;&#20986;</text><text fill="#000000" font-family="sans-serif" font-size="13" lengthAdjust="spacing" textLength="117" x="341" y="1108.9789">&#20302;&#38454; + &#39640;&#38454;&#29305;&#24449;&#20132;&#20114;</text></g><!--link sparse to emb1--><g id="link_sparse_emb1"><path d="M363.33,147.7399 C373.84,157.8199 385.5,169.1399 396,179.6699 C410.99,194.6999 423.3997,207.6484 436.0397,221.0284 " fill="none" id="sparse-to-emb1" style="stroke:#181818;stroke-width:1.0;"/><polygon fill="#181818" points="440.16,225.3899,436.8872,216.1007,436.7264,221.7553,431.0718,221.5945,440.16,225.3899" style="stroke:#181818;stroke-width:1.0;"/></g><!--link sparse to emb2--><g id="link_sparse_emb2"><path d="M331,147.7699 C331,171.5699 331,198.0499 331,219.4199 " fill="none" id="sparse-to-emb2" style="stroke:#181818;stroke-width:1.0;"/><polygon fill="#181818" points="331,225.4199,335,216.4199,331,220.4199,327,216.4199,331,225.4199" style="stroke:#181818;stroke-width:1.0;"/></g><!--link sparse to emb3--><g id="link_sparse_emb3"><path d="M298.67,147.7399 C288.16,157.8199 276.5,169.1399 266,179.6699 C251.01,194.6999 238.6003,207.6484 225.9603,221.0284 " fill="none" id="sparse-to-emb3" style="stroke:#181818;stroke-width:1.0;"/><polygon fill="#181818" points="221.84,225.3899,230.9282,221.5945,225.2736,221.7553,225.1128,216.1007,221.84,225.3899" style="stroke:#181818;stroke-width:1.0;"/></g><!--link sparse to embN--><g id="link_sparse_embN"><path d="M251.27,133.2999 C214.37,143.0599 171.04,157.9299 136,179.6699 C116.57,191.7199 102.5872,206.1026 90.3872,220.9626 " fill="none" id="sparse-to-embN" style="stroke:#181818;stroke-width:1.0;"/><polygon fill="#181818" points="86.58,225.5999,95.3824,221.182,89.7527,221.7354,89.1993,216.1057,86.58,225.5999" style="stroke:#181818;stroke-width:1.0;"/></g><!--link emb1 to embedding_matrix--><g id="link_emb1_embedding_matrix"><path d="M433.43,271.7299 C411.37,289.3699 385.2652,310.2617 363.2152,327.9017 " fill="none" id="emb1-to-embedding_matrix" style="stroke:#181818;stroke-width:1.0;"/><polygon fill="#181818" points="358.53,331.6499,368.0566,329.1511,362.4343,328.5264,363.059,322.9042,358.53,331.6499" style="stroke:#181818;stroke-width:1.0;"/></g><!--link emb2 to embedding_matrix--><g id="link_emb2_embedding_matrix"><path d="M331,271.7299 C331,289.3699 331,308.0099 331,325.6499 " fill="none" id="emb2-to-embedding_matrix" style="stroke:#181818;stroke-width:1.0;"/><polygon fill="#181818" points="331,331.6499,335,322.6499,331,326.6499,327,322.6499,331,331.6499" style="stroke:#181818;stroke-width:1.0;"/></g><!--link emb3 to embedding_matrix--><g id="link_emb3_embedding_matrix"><path d="M228.57,271.7299 C250.63,289.3699 276.7348,310.2617 298.7848,327.9017 " fill="none" id="emb3-to-embedding_matrix" style="stroke:#181818;stroke-width:1.0;"/><polygon fill="#181818" points="303.47,331.6499,298.941,322.9042,299.5657,328.5264,293.9434,329.1511,303.47,331.6499" style="stroke:#181818;stroke-width:1.0;"/></g><!--link embN to embedding_matrix--><g id="link_embN_embedding_matrix"><path d="M118.79,269.1099 C167.03,288.3299 234.6364,315.2684 281.2264,333.8384 " fill="none" id="embN-to-embedding_matrix" style="stroke:#181818;stroke-width:1.0;"/><polygon fill="#181818" points="286.8,336.0599,279.9207,329.0119,282.1554,334.2086,276.9586,336.4433,286.8,336.0599" style="stroke:#181818;stroke-width:1.0;"/></g><!--link dense to embedding_matrix--><g id="link_dense_embedding_matrix"><path d="M520.44,147.7499 C534.85,181.0399 550.71,234.4699 526,271.6699 C492.57,321.9899 427.513,340.5416 381.033,348.0616 " fill="none" id="dense-to-embedding_matrix" style="stroke:#181818;stroke-width:1.0;"/><polygon fill="#181818" points="375.11,349.0199,384.6333,351.5311,380.0458,348.2213,383.3556,343.6338,375.11,349.0199" style="stroke:#181818;stroke-width:1.0;"/></g><!--link embedding_matrix to fm_first--><g id="link_embedding_matrix_fm_first"><path d="M343.01,377.7899 C347.86,387.3899 353.2,398.8799 357,409.6699 C409.31,558.0699 441.5586,738.3674 453.2886,810.6274 " fill="none" id="embedding_matrix-to-fm_first" style="stroke:#181818;stroke-width:1.0;"/><polygon fill="#181818" points="454.25,816.5499,456.7562,807.0253,453.4488,811.6145,448.8596,808.3071,454.25,816.5499" style="stroke:#181818;stroke-width:1.0;"/></g><!--link embedding_matrix to fm_second--><g id="link_embedding_matrix_fm_second"><path d="M331,377.7399 C331,456.6599 331,718.9899 331,810.3899 " fill="none" id="embedding_matrix-to-fm_second" style="stroke:#181818;stroke-width:1.0;"/><polygon fill="#181818" points="331,816.3899,335,807.3899,331,811.3899,327,807.3899,331,816.3899" style="stroke:#181818;stroke-width:1.0;"/></g><!--link embedding_matrix to deep_input--><g id="link_embedding_matrix_deep_input"><path d="M303.47,377.7599 C276.01,399.8099 238.7389,429.7238 211.2589,451.7838 " fill="none" id="embedding_matrix-to-deep_input" style="stroke:#181818;stroke-width:1.0;"/><polygon fill="#181818" points="206.58,455.5399,216.1024,453.0251,210.4791,452.4099,211.0943,446.7866,206.58,455.5399" style="stroke:#181818;stroke-width:1.0;"/></g><!--link deep_input to hidden1--><g id="link_deep_input_hidden1"><path d="M176.83,501.8999 C175.16,518.9299 173.4232,536.6583 171.5832,555.4983 " fill="none" id="deep_input-to-hidden1" style="stroke:#181818;stroke-width:1.0;"/><polygon fill="#181818" points="171,561.4699,175.8559,552.9013,171.486,556.4936,167.8938,552.1237,171,561.4699" style="stroke:#181818;stroke-width:1.0;"/></g><!--link hidden1 to hidden2--><g id="link_hidden1_hidden2"><path d="M168,624.6999 C168,643.0499 168,660.3099 168,678.6499 " fill="none" id="hidden1-to-hidden2" style="stroke:#181818;stroke-width:1.0;"/><polygon fill="#181818" points="168,684.6499,172,675.6499,168,679.6499,164,675.6499,168,684.6499" style="stroke:#181818;stroke-width:1.0;"/></g><!--link hidden2 to hiddenN--><g id="link_hidden2_hiddenN"><path d="M168,747.9799 C168,768.6999 168,789.9099 168,810.5799 " fill="none" id="hidden2-to-hiddenN" style="stroke:#181818;stroke-width:1.0;"/><polygon fill="#181818" points="168,816.5799,172,807.5799,168,811.5799,164,807.5799,168,816.5799" style="stroke:#181818;stroke-width:1.0;"/></g><!--link fm_first to concat--><g id="link_fm_first_concat"><path d="M426.7,879.8299 C404.19,901.1999 379.0218,925.0893 358.7518,944.3293 " fill="none" id="fm_first-to-concat" style="stroke:#181818;stroke-width:1.0;"/><polygon fill="#181818" points="354.4,948.4599,363.6814,945.1651,358.0265,945.0177,358.1739,939.3628,354.4,948.4599" style="stroke:#181818;stroke-width:1.0;"/></g><!--link fm_second to concat--><g id="link_fm_second_concat"><path d="M331,879.8299 C331,901.1999 331,923.2199 331,942.4599 " fill="none" id="fm_second-to-concat" style="stroke:#181818;stroke-width:1.0;"/><polygon fill="#181818" points="331,948.4599,335,939.4599,331,943.4599,327,939.4599,331,948.4599" style="stroke:#181818;stroke-width:1.0;"/></g><!--link hiddenN to concat--><g id="link_hiddenN_concat"><path d="M209.13,879.8299 C237.9,901.2699 270.8304,925.8127 296.6404,945.0627 " fill="none" id="hiddenN-to-concat" style="stroke:#181818;stroke-width:1.0;"/><polygon fill="#181818" points="301.45,948.6499,296.627,940.0628,297.442,945.6606,291.8442,946.4755,301.45,948.6499" style="stroke:#181818;stroke-width:1.0;"/></g><!--link concat to output--><g id="link_concat_output"><path d="M316.38,994.8999 C305.18,1011.9299 292.8887,1030.618 280.4887,1049.458 " fill="none" id="concat-to-output" style="stroke:#181818;stroke-width:1.0;"/><polygon fill="#181818" points="277.19,1054.4699,285.4793,1049.1512,279.9389,1050.2933,278.7968,1044.753,277.19,1054.4699" style="stroke:#181818;stroke-width:1.0;"/></g><!--link output to ctr_result--><g id="link_output_ctr_result"><path d="M257,1117.9099 C257,1136.7799 257,1154.4999 257,1171.5299 " fill="none" id="output-to-ctr_result" style="stroke:#181818;stroke-width:1.0;"/><polygon fill="#181818" points="257,1177.5299,261,1168.5299,257,1172.5299,253,1168.5299,257,1177.5299" style="stroke:#181818;stroke-width:1.0;"/></g><!--link fm_second to GMN42--><g id="link_fm_second_GMN42"><path d="M347.84,816.4799 C361.73,794.5199 383.8,767.7599 412.5,759.1699 C451.25,747.5799 464.75,747.5799 503.5,759.1699 C531.2,767.4599 556,788.0599 574.38,807.3499 " fill="none" id="fm_second-GMN42" style="stroke:#181818;stroke-width:1.0;stroke-dasharray:7.0,7.0;"/></g><!--link hiddenN to GMN45--><g id="link_hiddenN_GMN45"><path d="M197.69,816.2699 C219.79,795.1399 251.99,769.4899 286.5,759.1699 C327.7,746.8499 632.3,746.8499 673.5,759.1699 C700.06,767.1199 722.91,787.9699 739.49,807.4999 " fill="none" id="hiddenN-GMN45" style="stroke:#181818;stroke-width:1.0;stroke-dasharray:7.0,7.0;"/></g><text fill="#000000" font-family="sans-serif" font-size="14" lengthAdjust="spacing" textLength="258" x="281.25" y="1244.9799">&#29992;&#20110; CTR &#39044;&#20272;&#30340;&#28145;&#24230;&#22240;&#23376;&#20998;&#35299;&#26426;&#27169;&#22411;&#26550;&#26500;</text><!--SRC=[VLN9Jjj06BxFKupWY12ASqKS0AL2WXoWLLK9AJB942mIJ-GuRTMgKafJTWYqXI2MDBGiQIlK8a5279QNyTZnMtGyOmSx2xd4yt__yltRZ2gf2GH74Kg59g1HFYR5DQDOCOevSd0Fec9AbR0CpMzbNTk48yydeVKZfz_-C_TpHlMIQ6Vae4GkjiZoOkFyft6eUHq0a9wNv9IeY4aOnSaKbf6imlS0qby8o-gKz0x1WC3Ems9qFgxWZ1mRmGcim9TpaeeuWfKOKhYqDyX-u0C0AMeWnX7iQTn_9PzFoUL2Z-FwCLIFMSwQktbpfKRkFqxBD0bZkJesEa1g3sHxbNuqZjVrc_snqHuefc6QCaqZs3iknUVKuKG6jNihaR-BhZTIkxBkSmD6eM8LhWR8agRNgynF3Cb-Drwsv7hTPSirNg540hzff-ueRcrRI_a0yukICu6dj0HNItXAA-Xg1P_I2hjQuSvQvlTVrjwrguHYCKcEHvAYgaXlQLxYQoJJdjc9EqNjxn_Y_FrdeUKSR3c7WMtaddnXR4JeYWIx8k7E26zQH-YnUQ49ivxJwnMtTyyKXEJsreKcz9kijLUnZcjqwBG78tjkVIhJ5M7rcar6PYKbhNQmqjQRLcp8TEs4v5TSgpIAOZdccoPxQ_sKHh0Y9jefUPQ4JIXAHUXcPjf8MFjRZKAUwWMcvKaq_g9lLC4fd56PsPmKesKATBKHkje8NMt2NMt2TgPjmsLtg5d1RgXJgOwm9tVm-CqWDp_dtoCJ79dWaOK1yDuDzHpPMdOBJCD7HTMtuG2uj9aFhW6QPBr2nxzN15fwkQJHKDFob1HFOYd6OjBgsObuxXtWqB3zSDJdXrxc_2udsLlEMbKY2afd4gfdXu7Zbv5fAW0WOnL1nOu5yQodw10EpWnvnvS-2cIvCZWmCqInViY7d4AwzgMnz9kibid5cLuhCT0ebAp3hAvff7hAVTWVvJKERkmO6olwtIQrvo0lEg14eKsdbPJR9qQ9lrRctRPPFsoIuQ6jFtlstXqL-Quof9a1fUc9JausZAC5-v6xpRV6dS6gYfDsOATfl1ICetcnQ-wSEd7fEyjx2FlOk-kSACAJes9EoKUY6Uq_]--></g></svg>