<?xml version="1.0" encoding="us-ascii" standalone="no"?><svg xmlns="http://www.w3.org/2000/svg" xmlns:xlink="http://www.w3.org/1999/xlink" contentStyleType="text/css" height="796px" preserveAspectRatio="none" style="width:1138px;height:796px;background:#FFFFFF;" version="1.1" viewBox="0 0 1138 796" width="1138px" zoomAndPan="magnify"><defs/><g><text fill="#000000" font-family="sans-serif" font-size="14" font-weight="bold" lengthAdjust="spacing" textLength="161.0625" x="481.4688" y="24.9659">DeepFM &#27169;&#22411;&#31867;&#23618;&#27425;&#32467;&#26500;</text><!--class Embedding--><g id="elem_Embedding"><rect codeLine="10" fill="#ADD8E6" height="162.4075" id="Embedding" rx="2.5" ry="2.5" style="stroke:#333333;stroke-width:0.5;" width="216" x="509" y="47.0679"/><ellipse cx="560.25" cy="63.0679" fill="#ADD1B2" rx="11" ry="11" style="stroke:#181818;stroke-width:1.0;"/><path d="M563.2188,68.7085 Q562.6406,69.0054 562,69.146 Q561.3594,69.3023 560.6563,69.3023 Q558.1563,69.3023 556.8281,67.6617 Q555.5156,66.0054 555.5156,62.8804 Q555.5156,59.7554 556.8281,58.0992 Q558.1563,56.4429 560.6563,56.4429 Q561.3594,56.4429 562,56.5992 Q562.6563,56.7554 563.2188,57.0523 L563.2188,59.771 Q562.5938,59.1929 562,58.9273 Q561.4063,58.646 560.7813,58.646 Q559.4375,58.646 558.75,59.7242 Q558.0625,60.7867 558.0625,62.8804 Q558.0625,64.9742 558.75,66.0523 Q559.4375,67.1148 560.7813,67.1148 Q561.4063,67.1148 562,66.8492 Q562.5938,66.5679 563.2188,65.9898 L563.2188,68.7085 Z " fill="#000000"/><text fill="#000000" font-family="sans-serif" font-size="11" lengthAdjust="spacing" textLength="105" x="580.75" y="67.3359">FeaturesEmbedding</text><line style="stroke:#333333;stroke-width:0.5;" x1="510" x2="724" y1="79.0679" y2="79.0679"/><rect fill="none" height="6" style="stroke:#C82930;stroke-width:1.0;" width="6" x="517" y="91.1019"/><text fill="#000000" font-family="sans-serif" font-size="14" lengthAdjust="spacing" textLength="128" x="529" y="98.0339">field_dims: List[int]</text><rect fill="none" height="6" style="stroke:#C82930;stroke-width:1.0;" width="6" x="517" y="110.1698"/><text fill="#000000" font-family="sans-serif" font-size="14" lengthAdjust="spacing" textLength="105" x="529" y="117.1018">embed_dim: int</text><rect fill="none" height="6" style="stroke:#C82930;stroke-width:1.0;" width="6" x="517" y="129.2377"/><text fill="#000000" font-family="sans-serif" font-size="14" lengthAdjust="spacing" textLength="182" x="529" y="136.1697">embedding: nn.ModuleList</text><text fill="#000000" font-family="sans-serif" font-size="14" lengthAdjust="spacing" textLength="136" x="529" y="155.2376">note: &#20026;&#27599;&#20010;&#31232;&#30095;&#29305;&#24449;</text><text fill="#000000" font-family="sans-serif" font-size="14" lengthAdjust="spacing" textLength="84" x="529" y="174.3055">&#29983;&#25104;&#23884;&#20837;&#21521;&#37327;</text><line style="stroke:#333333;stroke-width:0.5;" x1="510" x2="724" y1="182.4075" y2="182.4075"/><ellipse cx="520" cy="197.4415" fill="#84BE84" rx="3" ry="3" style="stroke:#038048;stroke-width:1.0;"/><text fill="#000000" font-family="sans-serif" font-size="14" lengthAdjust="spacing" textLength="190" x="529" y="201.3734">forward(X: Tensor) -&gt; Tensor</text></g><!--class FMFirst--><g id="elem_FMFirst"><rect codeLine="18" fill="#90EE90" height="124.2717" id="FMFirst" rx="2.5" ry="2.5" style="stroke:#333333;stroke-width:0.5;" width="216" x="7" y="66.0679"/><ellipse cx="75.25" cy="82.0679" fill="#ADD1B2" rx="11" ry="11" style="stroke:#181818;stroke-width:1.0;"/><path d="M78.2188,87.7085 Q77.6406,88.0054 77,88.146 Q76.3594,88.3023 75.6563,88.3023 Q73.1563,88.3023 71.8281,86.6617 Q70.5156,85.0054 70.5156,81.8804 Q70.5156,78.7554 71.8281,77.0992 Q73.1563,75.4429 75.6563,75.4429 Q76.3594,75.4429 77,75.5992 Q77.6563,75.7554 78.2188,76.0523 L78.2188,78.771 Q77.5938,78.1929 77,77.9273 Q76.4063,77.646 75.7813,77.646 Q74.4375,77.646 73.75,78.7242 Q73.0625,79.7867 73.0625,81.8804 Q73.0625,83.9742 73.75,85.0523 Q74.4375,86.1148 75.7813,86.1148 Q76.4063,86.1148 77,85.8492 Q77.5938,85.5679 78.2188,84.9898 L78.2188,87.7085 Z " fill="#000000"/><text fill="#000000" font-family="sans-serif" font-size="11" lengthAdjust="spacing" textLength="71" x="95.75" y="86.3359">FMFirstOrder</text><line style="stroke:#333333;stroke-width:0.5;" x1="8" x2="222" y1="98.0679" y2="98.0679"/><rect fill="none" height="6" style="stroke:#C82930;stroke-width:1.0;" width="6" x="15" y="110.1019"/><text fill="#000000" font-family="sans-serif" font-size="14" lengthAdjust="spacing" textLength="128" x="27" y="117.0339">field_dims: List[int]</text><rect fill="none" height="6" style="stroke:#C82930;stroke-width:1.0;" width="6" x="15" y="129.1698"/><text fill="#000000" font-family="sans-serif" font-size="14" lengthAdjust="spacing" textLength="111" x="27" y="136.1018">linear: nn.Linear</text><text fill="#000000" font-family="sans-serif" font-size="14" lengthAdjust="spacing" textLength="94" x="27" y="155.1697">note: &#32447;&#24615;&#37096;&#20998;</text><line style="stroke:#333333;stroke-width:0.5;" x1="8" x2="222" y1="163.2717" y2="163.2717"/><ellipse cx="18" cy="178.3056" fill="#84BE84" rx="3" ry="3" style="stroke:#038048;stroke-width:1.0;"/><text fill="#000000" font-family="sans-serif" font-size="14" lengthAdjust="spacing" textLength="190" x="27" y="182.2376">forward(X: Tensor) -&gt; Tensor</text></g><!--class FMSecond--><g id="elem_FMSecond"><rect codeLine="25" fill="#90EE90" height="124.2717" id="FMSecond" rx="2.5" ry="2.5" style="stroke:#333333;stroke-width:0.5;" width="216" x="258" y="66.0679"/><ellipse cx="318.75" cy="82.0679" fill="#ADD1B2" rx="11" ry="11" style="stroke:#181818;stroke-width:1.0;"/><path d="M321.7188,87.7085 Q321.1406,88.0054 320.5,88.146 Q319.8594,88.3023 319.1563,88.3023 Q316.6563,88.3023 315.3281,86.6617 Q314.0156,85.0054 314.0156,81.8804 Q314.0156,78.7554 315.3281,77.0992 Q316.6563,75.4429 319.1563,75.4429 Q319.8594,75.4429 320.5,75.5992 Q321.1563,75.7554 321.7188,76.0523 L321.7188,78.771 Q321.0938,78.1929 320.5,77.9273 Q319.9063,77.646 319.2813,77.646 Q317.9375,77.646 317.25,78.7242 Q316.5625,79.7867 316.5625,81.8804 Q316.5625,83.9742 317.25,85.0523 Q317.9375,86.1148 319.2813,86.1148 Q319.9063,86.1148 320.5,85.8492 Q321.0938,85.5679 321.7188,84.9898 L321.7188,87.7085 Z " fill="#000000"/><text fill="#000000" font-family="sans-serif" font-size="11" lengthAdjust="spacing" textLength="86" x="339.25" y="86.3359">FMSecondOrder</text><line style="stroke:#333333;stroke-width:0.5;" x1="259" x2="473" y1="98.0679" y2="98.0679"/><rect fill="none" height="6" style="stroke:#C82930;stroke-width:1.0;" width="6" x="266" y="110.1019"/><text fill="#000000" font-family="sans-serif" font-size="14" lengthAdjust="spacing" textLength="128" x="278" y="117.0339">field_dims: List[int]</text><rect fill="none" height="6" style="stroke:#C82930;stroke-width:1.0;" width="6" x="266" y="129.1698"/><text fill="#000000" font-family="sans-serif" font-size="14" lengthAdjust="spacing" textLength="105" x="278" y="136.1018">embed_dim: int</text><text fill="#000000" font-family="sans-serif" font-size="14" lengthAdjust="spacing" textLength="94" x="278" y="155.1697">note: &#29305;&#24449;&#20132;&#21449;</text><line style="stroke:#333333;stroke-width:0.5;" x1="259" x2="473" y1="163.2717" y2="163.2717"/><ellipse cx="269" cy="178.3056" fill="#84BE84" rx="3" ry="3" style="stroke:#038048;stroke-width:1.0;"/><text fill="#000000" font-family="sans-serif" font-size="14" lengthAdjust="spacing" textLength="190" x="278" y="182.2376">forward(X: Tensor) -&gt; Tensor</text></g><!--class FM--><g id="elem_FM"><rect codeLine="32" fill="#90EE90" height="105.2038" id="FM" rx="2.5" ry="2.5" style="stroke:#333333;stroke-width:0.5;" width="234" x="249" y="269.0679"/><ellipse cx="305.75" cy="285.0679" fill="#ADD1B2" rx="11" ry="11" style="stroke:#181818;stroke-width:1.0;"/><path d="M308.7188,290.7085 Q308.1406,291.0054 307.5,291.146 Q306.8594,291.3023 306.1563,291.3023 Q303.6563,291.3023 302.3281,289.6617 Q301.0156,288.0054 301.0156,284.8804 Q301.0156,281.7554 302.3281,280.0992 Q303.6563,278.4429 306.1563,278.4429 Q306.8594,278.4429 307.5,278.5992 Q308.1563,278.7554 308.7188,279.0523 L308.7188,281.771 Q308.0938,281.1929 307.5,280.9273 Q306.9063,280.646 306.2813,280.646 Q304.9375,280.646 304.25,281.7242 Q303.5625,282.7867 303.5625,284.8804 Q303.5625,286.9742 304.25,288.0523 Q304.9375,289.1148 306.2813,289.1148 Q306.9063,289.1148 307.5,288.8492 Q308.0938,288.5679 308.7188,287.9898 L308.7188,290.7085 Z " fill="#000000"/><text fill="#000000" font-family="sans-serif" font-size="11" lengthAdjust="spacing" textLength="112" x="326.25" y="289.3359">FactorizationMachine</text><line style="stroke:#333333;stroke-width:0.5;" x1="250" x2="482" y1="301.0679" y2="301.0679"/><rect fill="none" height="6" style="stroke:#C82930;stroke-width:1.0;" width="6" x="257" y="313.1019"/><text fill="#000000" font-family="sans-serif" font-size="14" lengthAdjust="spacing" textLength="167" x="269" y="320.0339">first_order: FMFirstOrder</text><rect fill="none" height="6" style="stroke:#C82930;stroke-width:1.0;" width="6" x="257" y="332.1698"/><text fill="#000000" font-family="sans-serif" font-size="14" lengthAdjust="spacing" textLength="208" x="269" y="339.1018">second_order: FMSecondOrder</text><line style="stroke:#333333;stroke-width:0.5;" x1="250" x2="482" y1="347.2038" y2="347.2038"/><ellipse cx="260" cy="362.2377" fill="#84BE84" rx="3" ry="3" style="stroke:#038048;stroke-width:1.0;"/><text fill="#000000" font-family="sans-serif" font-size="14" lengthAdjust="spacing" textLength="190" x="269" y="366.1697">forward(X: Tensor) -&gt; Tensor</text></g><!--class MLP--><g id="elem_MLP"><rect codeLine="38" fill="#F08080" height="124.2717" id="MLP" rx="2.5" ry="2.5" style="stroke:#333333;stroke-width:0.5;" width="216" x="915" y="66.0679"/><ellipse cx="961.25" cy="82.0679" fill="#ADD1B2" rx="11" ry="11" style="stroke:#181818;stroke-width:1.0;"/><path d="M964.2188,87.7085 Q963.6406,88.0054 963,88.146 Q962.3594,88.3023 961.6563,88.3023 Q959.1563,88.3023 957.8281,86.6617 Q956.5156,85.0054 956.5156,81.8804 Q956.5156,78.7554 957.8281,77.0992 Q959.1563,75.4429 961.6563,75.4429 Q962.3594,75.4429 963,75.5992 Q963.6563,75.7554 964.2188,76.0523 L964.2188,78.771 Q963.5938,78.1929 963,77.9273 Q962.4063,77.646 961.7813,77.646 Q960.4375,77.646 959.75,78.7242 Q959.0625,79.7867 959.0625,81.8804 Q959.0625,83.9742 959.75,85.0523 Q960.4375,86.1148 961.7813,86.1148 Q962.4063,86.1148 963,85.8492 Q963.5938,85.5679 964.2188,84.9898 L964.2188,87.7085 Z " fill="#000000"/><text fill="#000000" font-family="sans-serif" font-size="11" lengthAdjust="spacing" textLength="115" x="981.75" y="86.3359">MultiLayerPerceptron</text><line style="stroke:#333333;stroke-width:0.5;" x1="916" x2="1130" y1="98.0679" y2="98.0679"/><rect fill="none" height="6" style="stroke:#C82930;stroke-width:1.0;" width="6" x="923" y="110.1019"/><text fill="#000000" font-family="sans-serif" font-size="14" lengthAdjust="spacing" textLength="144" x="935" y="117.0339">layers: nn.ModuleList</text><rect fill="none" height="6" style="stroke:#C82930;stroke-width:1.0;" width="6" x="923" y="129.1698"/><text fill="#000000" font-family="sans-serif" font-size="14" lengthAdjust="spacing" textLength="92" x="935" y="136.1018">dropout: float</text><text fill="#000000" font-family="sans-serif" font-size="14" lengthAdjust="spacing" textLength="122" x="935" y="155.1697">note: &#28145;&#24230;&#31070;&#32463;&#32593;&#32476;</text><line style="stroke:#333333;stroke-width:0.5;" x1="916" x2="1130" y1="163.2717" y2="163.2717"/><ellipse cx="926" cy="178.3056" fill="#84BE84" rx="3" ry="3" style="stroke:#038048;stroke-width:1.0;"/><text fill="#000000" font-family="sans-serif" font-size="14" lengthAdjust="spacing" textLength="190" x="935" y="182.2376">forward(X: Tensor) -&gt; Tensor</text></g><!--class Deep--><g id="elem_Deep"><rect codeLine="45" fill="#F08080" height="105.2038" id="Deep" rx="2.5" ry="2.5" style="stroke:#333333;stroke-width:0.5;" width="248" x="665" y="269.0679"/><ellipse cx="740.25" cy="285.0679" fill="#ADD1B2" rx="11" ry="11" style="stroke:#181818;stroke-width:1.0;"/><path d="M743.2188,290.7085 Q742.6406,291.0054 742,291.146 Q741.3594,291.3023 740.6563,291.3023 Q738.1563,291.3023 736.8281,289.6617 Q735.5156,288.0054 735.5156,284.8804 Q735.5156,281.7554 736.8281,280.0992 Q738.1563,278.4429 740.6563,278.4429 Q741.3594,278.4429 742,278.5992 Q742.6563,278.7554 743.2188,279.0523 L743.2188,281.771 Q742.5938,281.1929 742,280.9273 Q741.4063,280.646 740.7813,280.646 Q739.4375,280.646 738.75,281.7242 Q738.0625,282.7867 738.0625,284.8804 Q738.0625,286.9742 738.75,288.0523 Q739.4375,289.1148 740.7813,289.1148 Q741.4063,289.1148 742,288.8492 Q742.5938,288.5679 743.2188,287.9898 L743.2188,290.7085 Z " fill="#000000"/><text fill="#000000" font-family="sans-serif" font-size="11" lengthAdjust="spacing" textLength="89" x="760.75" y="289.3359">DeepComponent</text><line style="stroke:#333333;stroke-width:0.5;" x1="666" x2="912" y1="301.0679" y2="301.0679"/><rect fill="none" height="6" style="stroke:#C82930;stroke-width:1.0;" width="6" x="673" y="313.1019"/><text fill="#000000" font-family="sans-serif" font-size="14" lengthAdjust="spacing" textLength="222" x="685" y="320.0339">embedding: FeaturesEmbedding</text><rect fill="none" height="6" style="stroke:#C82930;stroke-width:1.0;" width="6" x="673" y="332.1698"/><text fill="#000000" font-family="sans-serif" font-size="14" lengthAdjust="spacing" textLength="179" x="685" y="339.1018">mlp: MultiLayerPerceptron</text><line style="stroke:#333333;stroke-width:0.5;" x1="666" x2="912" y1="347.2038" y2="347.2038"/><ellipse cx="676" cy="362.2377" fill="#84BE84" rx="3" ry="3" style="stroke:#038048;stroke-width:1.0;"/><text fill="#000000" font-family="sans-serif" font-size="14" lengthAdjust="spacing" textLength="190" x="685" y="366.1697">forward(X: Tensor) -&gt; Tensor</text></g><!--class DeepFM--><g id="elem_DeepFM"><rect codeLine="51" fill="#FFFFE0" height="143.3396" id="DeepFM" rx="2.5" ry="2.5" style="stroke:#333333;stroke-width:0.5;" width="248" x="453" y="434.0679"/><ellipse cx="534.75" cy="450.0679" fill="#ADD1B2" rx="11" ry="11" style="stroke:#181818;stroke-width:1.0;"/><path d="M537.7188,455.7085 Q537.1406,456.0054 536.5,456.146 Q535.8594,456.3023 535.1563,456.3023 Q532.6563,456.3023 531.3281,454.6617 Q530.0156,453.0054 530.0156,449.8804 Q530.0156,446.7554 531.3281,445.0992 Q532.6563,443.4429 535.1563,443.4429 Q535.8594,443.4429 536.5,443.5992 Q537.1563,443.7554 537.7188,444.0523 L537.7188,446.771 Q537.0938,446.1929 536.5,445.9273 Q535.9063,445.646 535.2813,445.646 Q533.9375,445.646 533.25,446.7242 Q532.5625,447.7867 532.5625,449.8804 Q532.5625,451.9742 533.25,453.0523 Q533.9375,454.1148 535.2813,454.1148 Q535.9063,454.1148 536.5,453.8492 Q537.0938,453.5679 537.7188,452.9898 L537.7188,455.7085 Z " fill="#000000"/><text fill="#000000" font-family="sans-serif" font-size="11" lengthAdjust="spacing" textLength="76" x="555.25" y="454.3359">DeepFMModel</text><line style="stroke:#333333;stroke-width:0.5;" x1="454" x2="700" y1="466.0679" y2="466.0679"/><rect fill="none" height="6" style="stroke:#C82930;stroke-width:1.0;" width="6" x="461" y="478.1019"/><text fill="#000000" font-family="sans-serif" font-size="14" lengthAdjust="spacing" textLength="222" x="473" y="485.0339">embedding: FeaturesEmbedding</text><rect fill="none" height="6" style="stroke:#C82930;stroke-width:1.0;" width="6" x="461" y="497.1698"/><text fill="#000000" font-family="sans-serif" font-size="14" lengthAdjust="spacing" textLength="170" x="473" y="504.1018">fm: FactorizationMachine</text><rect fill="none" height="6" style="stroke:#C82930;stroke-width:1.0;" width="6" x="461" y="516.2377"/><text fill="#000000" font-family="sans-serif" font-size="14" lengthAdjust="spacing" textLength="187" x="473" y="523.1697">deep: MultiLayerPerceptron</text><text fill="#000000" font-family="sans-serif" font-size="14" lengthAdjust="spacing" textLength="147" x="473" y="542.2376">note: &#32452;&#21512; FM &#21644; Deep</text><line style="stroke:#333333;stroke-width:0.5;" x1="454" x2="700" y1="550.3396" y2="550.3396"/><ellipse cx="464" cy="565.3735" fill="#84BE84" rx="3" ry="3" style="stroke:#038048;stroke-width:1.0;"/><text fill="#000000" font-family="sans-serif" font-size="14" lengthAdjust="spacing" textLength="190" x="473" y="569.3055">forward(X: Tensor) -&gt; Tensor</text></g><!--class CTRModel--><g id="elem_CTRModel"><rect codeLine="59" fill="#FFFFE0" height="124.2717" id="CTRModel" rx="2.5" ry="2.5" style="stroke:#333333;stroke-width:0.5;" width="216" x="366" y="637.0679"/><ellipse cx="443.25" cy="653.0679" fill="#ADD1B2" rx="11" ry="11" style="stroke:#181818;stroke-width:1.0;"/><path d="M446.2188,658.7085 Q445.6406,659.0054 445,659.146 Q444.3594,659.3023 443.6563,659.3023 Q441.1563,659.3023 439.8281,657.6617 Q438.5156,656.0054 438.5156,652.8804 Q438.5156,649.7554 439.8281,648.0992 Q441.1563,646.4429 443.6563,646.4429 Q444.3594,646.4429 445,646.5992 Q445.6563,646.7554 446.2188,647.0523 L446.2188,649.771 Q445.5938,649.1929 445,648.9273 Q444.4063,648.646 443.7813,648.646 Q442.4375,648.646 441.75,649.7242 Q441.0625,650.7867 441.0625,652.8804 Q441.0625,654.9742 441.75,656.0523 Q442.4375,657.1148 443.7813,657.1148 Q444.4063,657.1148 445,656.8492 Q445.5938,656.5679 446.2188,655.9898 L446.2188,658.7085 Z " fill="#000000"/><text fill="#000000" font-family="sans-serif" font-size="11" lengthAdjust="spacing" textLength="53" x="463.75" y="657.3359">CTRModel</text><line style="stroke:#333333;stroke-width:0.5;" x1="367" x2="581" y1="669.0679" y2="669.0679"/><rect fill="none" height="6" style="stroke:#C82930;stroke-width:1.0;" width="6" x="374" y="681.1019"/><text fill="#000000" font-family="sans-serif" font-size="14" lengthAdjust="spacing" textLength="157" x="386" y="688.0339">deepfm: DeepFMModel</text><text fill="#000000" font-family="sans-serif" font-size="14" lengthAdjust="spacing" textLength="128" x="386" y="707.1018">note: &#36755;&#20986; CTR &#27010;&#29575;</text><line style="stroke:#333333;stroke-width:0.5;" x1="367" x2="581" y1="715.2038" y2="715.2038"/><ellipse cx="377" cy="730.2377" fill="#84BE84" rx="3" ry="3" style="stroke:#038048;stroke-width:1.0;"/><text fill="#000000" font-family="sans-serif" font-size="14" lengthAdjust="spacing" textLength="190" x="386" y="734.1697">forward(X: Tensor) -&gt; Tensor</text><ellipse cx="377" cy="749.3056" fill="#84BE84" rx="3" ry="3" style="stroke:#038048;stroke-width:1.0;"/><text fill="#000000" font-family="sans-serif" font-size="14" lengthAdjust="spacing" textLength="185" x="386" y="753.2376">predict(X: Tensor) -&gt; Tensor</text></g><g id="elem_GMN18"><path d="M760.5,87.5679 L760.5,124.0679 L725.24,128.0679 L760.5,132.0679 L760.5,168.392 A0,0 0 0 0 760.5,168.392 L879.5,168.392 A0,0 0 0 0 879.5,168.392 L879.5,97.5679 L869.5,87.5679 L760.5,87.5679 A0,0 0 0 0 760.5,87.5679 " fill="#FEFFDD" style="stroke:#181818;stroke-width:0.5;"/><path d="M869.5,87.5679 L869.5,97.5679 L879.5,97.5679 L869.5,87.5679 " fill="#FEFFDD" style="stroke:#181818;stroke-width:0.5;"/><text fill="#000000" font-family="sans-serif" font-size="13" font-weight="bold" lengthAdjust="spacing" textLength="78.0313" x="766.5" y="106.4649">&#23884;&#20837;&#23618; (&#20849;&#20139;)</text><text fill="#000000" font-family="sans-serif" font-size="13" lengthAdjust="spacing" textLength="98" x="766.5" y="124.1709">- &#20026;&#27599;&#20010;&#31867;&#21035;&#29305;&#24449;</text><text fill="#000000" font-family="sans-serif" font-size="13" lengthAdjust="spacing" textLength="78" x="772.5" y="141.877">&#29983;&#25104;&#31264;&#23494;&#21521;&#37327;</text><text fill="#000000" font-family="sans-serif" font-size="13" lengthAdjust="spacing" textLength="59" x="766.5" y="159.583">- &#21442;&#25968;&#39640;&#25928;</text></g><g id="elem_GMN21"><path d="M518,281.0679 L518,317.5679 L483,321.5679 L518,325.5679 L518,361.892 A0,0 0 0 0 518,361.892 L630,361.892 A0,0 0 0 0 630,361.892 L630,291.0679 L620,281.0679 L518,281.0679 A0,0 0 0 0 518,281.0679 " fill="#FEFFDD" style="stroke:#181818;stroke-width:0.5;"/><path d="M620,281.0679 L620,291.0679 L630,291.0679 L620,281.0679 " fill="#FEFFDD" style="stroke:#181818;stroke-width:0.5;"/><text fill="#000000" font-family="sans-serif" font-size="13" font-weight="bold" lengthAdjust="spacing" textLength="48.8125" x="524" y="299.9649">FM &#32452;&#20214;</text><text fill="#000000" font-family="sans-serif" font-size="13" lengthAdjust="spacing" textLength="91" x="524" y="317.6709">- &#19968;&#38454;: &#32447;&#24615;&#37096;&#20998;</text><text fill="#000000" font-family="sans-serif" font-size="13" lengthAdjust="spacing" textLength="91" x="524" y="335.377">- &#20108;&#38454;: &#29305;&#24449;&#20132;&#21449;</text><text fill="#000000" font-family="sans-serif" font-size="13" lengthAdjust="spacing" textLength="59" x="524" y="353.083">- &#20302;&#38454;&#20132;&#20114;</text></g><g id="elem_GMN24"><path d="M948.5,281.0679 L948.5,317.5679 L913.31,321.5679 L948.5,325.5679 L948.5,361.892 A0,0 0 0 0 948.5,361.892 L1071.5,361.892 A0,0 0 0 0 1071.5,361.892 L1071.5,291.0679 L1061.5,281.0679 L948.5,281.0679 A0,0 0 0 0 948.5,281.0679 " fill="#FEFFDD" style="stroke:#181818;stroke-width:0.5;"/><path d="M1061.5,281.0679 L1061.5,291.0679 L1071.5,291.0679 L1061.5,281.0679 " fill="#FEFFDD" style="stroke:#181818;stroke-width:0.5;"/><text fill="#000000" font-family="sans-serif" font-size="13" font-weight="bold" lengthAdjust="spacing" textLength="63.8125" x="954.5" y="299.9649">Deep &#32452;&#20214;</text><text fill="#000000" font-family="sans-serif" font-size="13" lengthAdjust="spacing" textLength="102" x="954.5" y="317.6709">- MLP &#22810;&#23618;&#24863;&#30693;&#26426;</text><text fill="#000000" font-family="sans-serif" font-size="13" lengthAdjust="spacing" textLength="72" x="954.5" y="335.377">- &#39640;&#38454;&#38750;&#32447;&#24615;</text><text fill="#000000" font-family="sans-serif" font-size="13" lengthAdjust="spacing" textLength="59" x="954.5" y="353.083">- &#22797;&#26434;&#27169;&#24335;</text></g><g id="elem_GMN27"><path d="M617,649.5679 L617,748.098 A0,0 0 0 0 617,748.098 L743,748.098 A0,0 0 0 0 743,748.098 L743,659.5679 L733,649.5679 L657.82,649.5679 L615.06,577.3279 L649.82,649.5679 L617,649.5679 A0,0 0 0 0 617,649.5679 " fill="#FEFFDD" style="stroke:#181818;stroke-width:0.5;"/><path d="M733,649.5679 L733,659.5679 L743,659.5679 L733,649.5679 " fill="#FEFFDD" style="stroke:#181818;stroke-width:0.5;"/><text fill="#000000" font-family="sans-serif" font-size="13" font-weight="bold" lengthAdjust="spacing" textLength="53.625" x="623" y="668.4649">&#20851;&#38190;&#35774;&#35745;</text><text fill="#000000" font-family="sans-serif" font-size="13" lengthAdjust="spacing" textLength="78" x="623" y="686.1709">1. &#23884;&#20837;&#23618;&#20849;&#20139;</text><text fill="#000000" font-family="sans-serif" font-size="13" lengthAdjust="spacing" textLength="105" x="623" y="703.877">2. FM + Deep &#24182;&#34892;</text><text fill="#000000" font-family="sans-serif" font-size="13" lengthAdjust="spacing" textLength="78" x="623" y="721.583">3. &#31471;&#21040;&#31471;&#35757;&#32451;</text><text fill="#000000" font-family="sans-serif" font-size="13" lengthAdjust="spacing" textLength="78" x="623" y="739.289">4. &#20302;&#39640;&#38454;&#32452;&#21512;</text></g><!--reverse link Embedding to FM--><g id="link_Embedding_FM"><path codeLine="66" d="M497.6981,220.0843 C471.2281,240.2743 457.83,250.5079 433.74,268.8879 " fill="none" id="Embedding-backto-FM" style="stroke:#181818;stroke-width:1.0;"/><polygon fill="none" points="512.01,209.1679,494.0593,215.3137,501.3369,224.855,512.01,209.1679" style="stroke:#181818;stroke-width:1.0;"/></g><!--reverse link Embedding to Deep--><g id="link_Embedding_Deep"><path codeLine="67" d="M700.9763,222.5607 C719.1063,242.7507 726.07,250.5079 742.58,268.8879 " fill="none" id="Embedding-backto-Deep" style="stroke:#181818;stroke-width:1.0;"/><polygon fill="none" points="688.95,209.1679,696.5121,226.5695,705.4406,218.5519,688.95,209.1679" style="stroke:#181818;stroke-width:1.0;"/></g><!--reverse link FMFirst to FM--><g id="link_FMFirst_FM"><path codeLine="69" d="M209.4208,201.1059 C242.7008,226.4959 266.6,244.7279 298.44,269.0179 " fill="none" id="FMFirst-backto-FM" style="stroke:#181818;stroke-width:1.0;"/><polygon fill="none" points="195.11,190.1879,205.7814,205.8761,213.0601,196.3356,195.11,190.1879" style="stroke:#181818;stroke-width:1.0;"/></g><!--reverse link FMSecond to FM--><g id="link_FMSecond_FM"><path codeLine="70" d="M366,208.1879 C366,233.5779 366,244.7279 366,269.0179 " fill="none" id="FMSecond-backto-FM" style="stroke:#181818;stroke-width:1.0;"/><polygon fill="none" points="366,190.1879,360,208.1879,372,208.1879,366,190.1879" style="stroke:#181818;stroke-width:1.0;"/></g><!--reverse link MLP to Deep--><g id="link_MLP_Deep"><path codeLine="72" d="M934.3892,201.5867 C903.3592,226.9767 881.67,244.7279 851.99,269.0179 " fill="none" id="MLP-backto-Deep" style="stroke:#181818;stroke-width:1.0;"/><polygon fill="none" points="948.32,190.1879,930.5896,196.9431,938.1888,206.2303,948.32,190.1879" style="stroke:#181818;stroke-width:1.0;"/></g><!--reverse link FM to DeepFM--><g id="link_FM_DeepFM"><path codeLine="74" d="M438.0165,384.6873 C459.4565,403.1773 471.9,413.9079 494.89,433.7479 " fill="none" id="FM-backto-DeepFM" style="stroke:#181818;stroke-width:1.0;"/><ellipse cx="431.9583" cy="379.4626" fill="#FFFFFF" rx="8" ry="8" style="stroke:#181818;stroke-width:1.0;"/><line style="stroke:#181818;stroke-width:1.0;" x1="438.0165" x2="425.9" y1="384.6873" y2="374.2379"/><line style="stroke:#181818;stroke-width:1.0;" x1="426.7336" x2="437.183" y1="385.5209" y2="373.4043"/></g><!--reverse link Deep to DeepFM--><g id="link_Deep_DeepFM"><path codeLine="75" d="M716.6771,384.6566 C695.1271,403.1466 682.6,413.9079 659.5,433.7479 " fill="none" id="Deep-backto-DeepFM" style="stroke:#181818;stroke-width:1.0;"/><ellipse cx="722.7485" cy="379.4473" fill="#FFFFFF" rx="8" ry="8" style="stroke:#181818;stroke-width:1.0;"/><line style="stroke:#181818;stroke-width:1.0;" x1="716.6771" x2="728.82" y1="384.6566" y2="374.2379"/><line style="stroke:#181818;stroke-width:1.0;" x1="717.5392" x2="727.9579" y1="373.3758" y2="385.5187"/></g><!--reverse link DeepFM to CTRModel--><g id="link_DeepFM_CTRModel"><path codeLine="77" d="M530.412,593.1795 C519.862,612.7895 517.04,618.0379 506.82,637.0379 " fill="none" id="DeepFM-backto-CTRModel" style="stroke:#181818;stroke-width:1.0;"/><polygon fill="none" points="538.94,577.3279,525.1281,590.3368,535.6959,596.0222,538.94,577.3279" style="stroke:#181818;stroke-width:1.0;"/></g><text fill="#000000" font-family="sans-serif" font-size="14" lengthAdjust="spacing" textLength="211" x="456.5" y="783.3055">PyTorch &#23454;&#29616;&#30340;&#26680;&#24515;&#32452;&#20214;&#21450;&#20854;&#20851;&#31995;</text><!--SRC=[dPNVRjD85CRl_HH7S0EgabLXhwAg5tItUvE82Yej211oxKbhuSn4uuaGxAvKqfG6w3RbtmeXIAdKijLsDss4ACM6yZ8PJ_8MEpDs4XE2QF1559ypu_FxFX-VOGvp4Vo4K74w1-7E9gy_4Cs0DylXlviYU1pMAuPb5fb3CCpScYNKMW3Ug8krVV6y4huwv9-MH51f1GUyTfyl7_3bD-9DO1ZU3GSNJMeMm79DpuFV393NETEwCKz92TjJn2KKVbrm68eoXDg8Hj6JP_MbuzC4iulERGJZuyOVXX4zxCGqCbc98k_dmXooRGVFdm3JWzuTdCmwymlid5j2SU4Kv1tasjTjf-1b8Ejux8g3sRKuXzH6bSk0Z2Q3wcaPm3YT8tR9HMgZJez1dj2R9hLFNSh0BC8UeQSXDHd_rKimOIW3hKC_tAkr3lyHEulYhvguzvuVtRcAnPEDiBhEtwxovMs-_h2pKakgoqqxr6FdbIDQM1o8PVr24SB7qkKw69bKysVrtz7OXVyfNFoxixJ3gtS_mxk8B8Bj95yK6HbmYF77fzDMjlmjNhkNf3CjHgXpsrGTcpEj1IayXlmAddJskkw-32ITZ_EULjPVaD1-7Du-MAxaCYThta9q1b4B5HabM8FbiZCnsHIXfjiZSzLQRrZtfS2cf4XAB0DvbvWZ6XU-QtB_jTYkYw0cFZuKmOi4fPe3KwHG91XXfl5KP2XVuWFvudkCbnJSOWQ62H_DkcWuIHEGsqFglSxBo7N9pL6eyhBTXhL9rrlvzE-dJZHeKE7hLTLt_D6gPav8cfgzqDVJlHckIF4ev8GBnmKPWo95jcEnRx6sZnxp5L-1GFYwBDPM56f_daxydaf98OCHhSdeJgVkejuqw0OCrU6VRO2n-4PcTNybxetuxUeDNMSCGt42LVO0oKFobKxCJSQ3j5c6KtovsV9tJq_yC3TfAFVw0rWUQjNTQ6fevT4C5Zkl-DxTU0Qh3RnM3f_kTtQVXK-h1f8oLEN1-f9J5vQSqUcNgBVOUNOmC3nrmb-D4icvfHCVrsH21bh-ewyMrCxfajglWQBAOBxrN1tQbGsniHs-y7LSgf2FxhoiHpIHlgq_mvTbTT1_g0sMcoECaKAtNbUaFDCxJnhjnb6xiHcN74z3p_F8SHayarRDFXPD3Fx-eBsvAgDdqo1sztXrN_ws6_-9O4a6VqnhsHel-axwAFy3]--></g></svg>